<?xml version="1.0" encoding="utf-8"?>
<!-- Generator: Adobe Illustrator 25.3.1, SVG Export Plug-In . SVG Version: 6.00 Build 0)  -->
<svg version="1.1" id="Слой_1" xmlns="http://www.w3.org/2000/svg" xmlns:xlink="http://www.w3.org/1999/xlink" x="0px" y="0px"
	 viewBox="0 0 689 294" style="enable-background:new 0 0 689 294;" xml:space="preserve">
<style type="text/css">
	.st0{fill:#343434;}
	.st1{fill:#343434;fill-opacity:0.4;}
	.st2{fill:none;stroke:#343434;stroke-width:1.5;stroke-linecap:round;}
</style>
<path class="st0" d="M9.06,215.28c-1,0-1.91-0.14-2.73-0.42c-0.82-0.26-1.5-0.55-2.04-0.87c-0.54-0.32-0.81-0.5-0.81-0.54
	l-1.98,1.53H0.87v-7.71H1.5l1.74,5.01c0,0.06,0.25,0.29,0.75,0.69c0.5,0.4,1.18,0.77,2.04,1.11c0.86,0.34,1.87,0.51,3.03,0.51
	c1.7,0,2.96-0.53,3.78-1.59c0.82-1.06,1.23-2.55,1.23-4.47v-0.33c0-1.88-0.46-3.31-1.38-4.29c-0.92-1-2.38-1.5-4.38-1.5H6.15v-0.66
	h2.16c1.6,0,2.79-0.44,3.57-1.32c0.8-0.9,1.2-2.2,1.2-3.9v-0.18c0-1.88-0.38-3.28-1.14-4.2c-0.74-0.92-1.8-1.38-3.18-1.38
	c-0.98,0-1.83,0.13-2.55,0.39c-0.7,0.24-1.26,0.51-1.68,0.81c-0.4,0.3-0.6,0.47-0.6,0.51l-1.86,5.04H1.44v-7.44h0.63l2.01,1.38
	c0-0.02,0.22-0.15,0.66-0.39c0.46-0.26,1.04-0.49,1.74-0.69s1.47-0.3,2.31-0.3c2.76,0,4.76,0.55,6,1.65
	c1.26,1.1,1.89,2.62,1.89,4.56c0,1.48-0.48,2.74-1.44,3.78c-0.94,1.04-2.35,1.68-4.23,1.92c2.34,0.36,4.03,1.1,5.07,2.22
	s1.56,2.55,1.56,4.29c0,2.22-0.72,3.91-2.16,5.07C14.04,214.71,11.9,215.28,9.06,215.28z M27.25,214.68v-0.6l2.1-0.3v-13.74
	l-2.1-0.3v-0.6h6.9v0.6l-1.8,0.3v6.39h7.41v-6.39l-1.8-0.3v-0.6h6.9v0.6l-2.1,0.3v13.74l2.1,0.3v0.6h-6.9v-0.6l1.8-0.3v-6.6h-7.41
	v6.6l1.8,0.3v0.6H27.25z M54.86,214.98c-1.48,0-2.82-0.33-4.02-0.99c-1.2-0.68-2.15-1.63-2.85-2.85c-0.7-1.22-1.05-2.63-1.05-4.23
	c0-1.6,0.34-3,1.02-4.2c0.7-1.22,1.63-2.16,2.79-2.82c1.18-0.68,2.49-1.02,3.93-1.02c1.26,0,2.39,0.28,3.39,0.84
	s1.78,1.34,2.34,2.34c0.56,0.98,0.85,2.11,0.87,3.39H50.24v2.97c0,1.76,0.39,3.19,1.17,4.29c0.8,1.08,1.95,1.62,3.45,1.62
	c1.38,0,2.6-0.39,3.66-1.17s1.71-1.79,1.95-3.03h0.69c-0.28,1.48-0.99,2.66-2.13,3.54C57.89,214.54,56.5,214.98,54.86,214.98z
	 M57.98,204.69c0-1.74-0.27-3.03-0.81-3.87c-0.54-0.86-1.38-1.29-2.52-1.29c-1.34,0-2.38,0.47-3.12,1.41
	c-0.74,0.94-1.16,2.19-1.26,3.75H57.98z M66.73,214.68v-0.6l2.4-0.3v-13.89h-2.58l-2.61,4.95H63.1l0.45-5.7h14.16l0.45,5.7h-0.84
	l-2.64-4.95h-2.55v13.89l2.4,0.3v0.6H66.73z M88,214.98c-1.48,0-2.82-0.33-4.02-0.99c-1.2-0.68-2.15-1.63-2.85-2.85
	c-0.7-1.22-1.05-2.63-1.05-4.23c0-1.6,0.34-3,1.02-4.2c0.7-1.22,1.63-2.16,2.79-2.82c1.18-0.68,2.49-1.02,3.93-1.02
	c1.26,0,2.39,0.28,3.39,0.84s1.78,1.34,2.34,2.34c0.56,0.98,0.85,2.11,0.87,3.39H83.38v2.97c0,1.76,0.39,3.19,1.17,4.29
	c0.8,1.08,1.95,1.62,3.45,1.62c1.38,0,2.6-0.39,3.66-1.17s1.71-1.79,1.95-3.03h0.69c-0.28,1.48-0.99,2.66-2.13,3.54
	C91.03,214.54,89.64,214.98,88,214.98z M91.12,204.69c0-1.74-0.27-3.03-0.81-3.87c-0.54-0.86-1.38-1.29-2.52-1.29
	c-1.34,0-2.38,0.47-3.12,1.41c-0.74,0.94-1.16,2.19-1.26,3.75H91.12z M96.24,222.57l2.1-0.3v-22.2l-2.1-0.3v-0.6h5.1v3.15
	c0.5-1.08,1.17-1.92,2.01-2.52c0.86-0.62,1.88-0.93,3.06-0.93c1.42,0,2.67,0.34,3.75,1.02c1.08,0.66,1.92,1.6,2.52,2.82
	c0.6,1.2,0.9,2.61,0.9,4.23c0,1.62-0.3,3.04-0.9,4.26c-0.6,1.2-1.44,2.13-2.52,2.79c-1.08,0.66-2.33,0.99-3.75,0.99
	c-1.18,0-2.2-0.3-3.06-0.9c-0.84-0.62-1.51-1.46-2.01-2.52v10.71l2.82,0.3v0.6h-7.92V222.57z M106.11,214.23
	c2.78,0,4.17-1.93,4.17-5.79v-3c0-3.88-1.39-5.82-4.17-5.82c-0.88,0-1.68,0.26-2.4,0.78c-0.72,0.5-1.29,1.18-1.71,2.04
	s-0.64,1.79-0.66,2.79v3.21c0,1.02,0.2,1.98,0.6,2.88c0.42,0.88,0.99,1.59,1.71,2.13C104.39,213.97,105.21,214.23,106.11,214.23z
	 M115.66,214.68v-0.6l2.1-0.3v-13.74l-2.1-0.3v-0.6h17.4v0.6l-2.1,0.3v13.74l2.1,0.3v0.6h-6.9v-0.6l1.8-0.3v-13.89h-7.2v13.89
	l1.8,0.3v0.6H115.66z M137.89,195.66c-0.56,0-1.04-0.19-1.44-0.57c-0.4-0.4-0.6-0.88-0.6-1.44s0.19-1.03,0.57-1.41
	c0.4-0.38,0.89-0.57,1.47-0.57c0.54,0,1,0.19,1.38,0.57c0.38,0.38,0.57,0.85,0.57,1.41s-0.19,1.04-0.57,1.44
	C138.89,195.47,138.43,195.66,137.89,195.66z M134.71,214.68v-0.6l2.1-0.3v-13.71l-2.1-0.3v-0.6h5.1v14.61l2.1,0.3v0.6H134.71z
	 M143.35,214.68v-0.6l2.1-0.3v-13.74l-2.1-0.3v-0.6h6.9v0.6l-1.8,0.3v6.39h7.41v-6.39l-1.8-0.3v-0.6h6.9v0.6l-2.1,0.3v13.74l2.1,0.3
	v0.6h-6.9v-0.6l1.8-0.3v-6.6h-7.41v6.6l1.8,0.3v0.6H143.35z M162.57,214.68v-0.6l2.1-0.3v-13.74l-2.1-0.3v-0.6h6.9v0.6l-1.8,0.3
	v6.39h7.41v-6.39l-1.8-0.3v-0.6h6.9v0.6l-2.1,0.3v13.74l2.1,0.3v0.6h-6.9v-0.6l1.8-0.3v-6.6h-7.41v6.6l1.8,0.3v0.6H162.57z
	 M183.56,214.98c-0.5,0-1.01-0.11-1.53-0.33c-0.52-0.24-0.97-0.58-1.35-1.02l0.45-0.45c0.36,0.36,0.71,0.54,1.05,0.54
	c0.3,0,0.52-0.11,0.66-0.33c0.16-0.22,0.31-0.66,0.45-1.32l0.33-1.74c0.18-0.98,0.51-1.71,0.99-2.19c0.48-0.48,1.26-0.8,2.34-0.96
	v-0.15c-1.06-0.18-1.93-0.57-2.61-1.17c-0.66-0.6-0.99-1.48-0.99-2.64c0-1.34,0.45-2.35,1.35-3.03c0.9-0.7,2.36-1.05,4.38-1.05h8.58
	v0.63l-2.16,0.3v13.68l2.16,0.33v0.6h-7.32v-0.6l2.16-0.33v-6.21h-2.76c-0.86,0-1.53,0.19-2.01,0.57c-0.46,0.38-0.76,1.01-0.9,1.89
	l-0.45,2.55c-0.16,0.88-0.45,1.51-0.87,1.89C185.09,214.8,184.44,214.98,183.56,214.98z M192.5,206.79v-6.9h-2.52
	c-1.16,0-2.02,0.26-2.58,0.78c-0.54,0.52-0.81,1.35-0.81,2.49v0.39c0,1.12,0.28,1.94,0.84,2.46c0.56,0.52,1.33,0.78,2.31,0.78H192.5
	z M199.28,214.68v-0.6l2.28-0.9v-13.17l-2.1-0.27v-0.6h5.82l4.74,11.22l4.71-11.22h5.52v0.6l-2.1,0.3v13.74l2.1,0.3v0.6h-6.9v-0.6
	l1.8-0.3v-13.65l-6.21,14.55h-0.36l-6.27-14.55v13.05l2.28,0.9v0.6H199.28z M237.59,214.08l3-0.3v-5.82
	c-0.54,0.28-1.23,0.53-2.07,0.75c-0.82,0.22-1.76,0.33-2.82,0.33c-1.64,0-2.92-0.34-3.84-1.02c-0.9-0.68-1.35-1.78-1.35-3.3v-4.68
	l-2.1-0.3v-0.6h6.9v0.6l-1.8,0.3v4.68c0,1.12,0.23,1.97,0.69,2.55c0.46,0.58,1.22,0.87,2.28,0.87c0.92,0,1.72-0.1,2.4-0.3
	c0.7-0.2,1.27-0.43,1.71-0.69v-7.11l-1.8-0.3v-0.6h6.9v0.6l-2.1,0.3v13.74l2.1,0.3v0.6h-8.1V214.08z M255.72,214.98
	c-1.48,0-2.82-0.33-4.02-0.99c-1.2-0.68-2.15-1.63-2.85-2.85c-0.7-1.22-1.05-2.63-1.05-4.23c0-1.6,0.34-3,1.02-4.2
	c0.7-1.22,1.63-2.16,2.79-2.82c1.18-0.68,2.49-1.02,3.93-1.02c1.26,0,2.39,0.28,3.39,0.84s1.78,1.34,2.34,2.34
	c0.56,0.98,0.85,2.11,0.87,3.39H251.1v2.97c0,1.76,0.39,3.19,1.17,4.29c0.8,1.08,1.95,1.62,3.45,1.62c1.38,0,2.6-0.39,3.66-1.17
	s1.71-1.79,1.95-3.03h0.69c-0.28,1.48-0.99,2.66-2.13,3.54C258.75,214.54,257.36,214.98,255.72,214.98z M258.84,204.69
	c0-1.74-0.27-3.03-0.81-3.87c-0.54-0.86-1.38-1.29-2.52-1.29c-1.34,0-2.38,0.47-3.12,1.41c-0.74,0.94-1.16,2.19-1.26,3.75H258.84z
	 M278.12,214.98c-0.88,0-1.53-0.18-1.95-0.54c-0.42-0.38-0.71-1.01-0.87-1.89l-0.6-3.18c-0.18-0.94-0.48-1.6-0.9-1.98
	c-0.42-0.38-0.99-0.58-1.71-0.6h-2.79v6.96l2.16,0.33v0.6h-7.32v-0.6l2.16-0.33v-13.68l-2.16-0.3v-0.63h7.32v0.63l-2.16,0.3v6.03
	h2.82c0.5-0.04,0.9-0.21,1.2-0.51c0.3-0.32,0.55-0.86,0.75-1.62l0.54-2.16c0.24-0.98,0.56-1.71,0.96-2.19
	c0.42-0.5,1.06-0.75,1.92-0.75c0.72,0,1.28,0.2,1.68,0.6c0.4,0.38,0.6,0.85,0.6,1.41c0,0.52-0.17,0.97-0.51,1.35
	c-0.32,0.36-0.76,0.54-1.32,0.54c-0.3,0-0.59-0.05-0.87-0.15c0.06-0.18,0.09-0.35,0.09-0.51c0-0.26-0.08-0.48-0.24-0.66
	c-0.16-0.18-0.36-0.27-0.6-0.27c-0.48,0-0.8,0.28-0.96,0.84l-0.57,2.16c-0.26,0.94-0.6,1.6-1.02,1.98c1.32,0.12,2.28,0.44,2.88,0.96
	c0.62,0.52,1.03,1.31,1.23,2.37l0.51,2.58c0.14,0.66,0.28,1.1,0.42,1.32c0.16,0.22,0.39,0.33,0.69,0.33c0.34,0,0.69-0.18,1.05-0.54
	l0.45,0.45c-0.38,0.44-0.83,0.78-1.35,1.02C279.13,214.87,278.62,214.98,278.12,214.98z M286.61,214.98c-1.28,0-2.33-0.33-3.15-0.99
	c-0.82-0.68-1.23-1.68-1.23-3c0-1.88,0.79-3.21,2.37-3.99c1.58-0.8,3.41-1.2,5.49-1.2h2.01v-2.31c0-1.04-0.12-1.84-0.36-2.4
	c-0.22-0.58-0.57-0.98-1.05-1.2c-0.48-0.24-1.13-0.36-1.95-0.36c-0.94,0-1.64,0.19-2.1,0.57c-0.46,0.36-0.69,0.85-0.69,1.47
	c0,0.58,0.28,0.96,0.84,1.14c0,0.5-0.19,0.94-0.57,1.32c-0.38,0.38-0.83,0.57-1.35,0.57c-0.56,0-1.01-0.15-1.35-0.45
	c-0.34-0.32-0.51-0.8-0.51-1.44c0-1.16,0.58-2.09,1.74-2.79c1.16-0.7,2.61-1.05,4.35-1.05c4,0,6,1.74,6,5.22v8.58
	c0,0.44,0.09,0.78,0.27,1.02c0.2,0.22,0.48,0.33,0.84,0.33c0.34,0,0.61-0.11,0.81-0.33c0.2-0.24,0.3-0.56,0.3-0.96h0.63
	c0,0.7-0.23,1.25-0.69,1.65c-0.44,0.4-1.06,0.6-1.86,0.6c-0.92,0-1.7-0.26-2.34-0.78c-0.62-0.54-0.94-1.37-0.96-2.49
	c-0.48,1.02-1.22,1.82-2.22,2.4C288.9,214.69,287.81,214.98,286.61,214.98z M288.26,213.66c0.54,0,1.09-0.16,1.65-0.48
	c0.58-0.32,1.07-0.78,1.47-1.38c0.4-0.62,0.64-1.36,0.72-2.22v-3.12h-2.01c-1.64,0-2.87,0.37-3.69,1.11c-0.8,0.72-1.2,1.74-1.2,3.06
	c0,1.1,0.26,1.88,0.78,2.34C286.5,213.43,287.26,213.66,288.26,213.66z M306.93,214.95c-1.52,0-2.87-0.34-4.05-1.02
	c-1.18-0.7-2.1-1.66-2.76-2.88c-0.64-1.22-0.96-2.6-0.96-4.14c0-1.58,0.32-2.98,0.96-4.2c0.66-1.22,1.58-2.17,2.76-2.85
	c1.18-0.68,2.53-1.02,4.05-1.02c2.22,0,3.83,0.32,4.83,0.96c1.02,0.62,1.53,1.41,1.53,2.37c0,0.6-0.18,1.09-0.54,1.47
	c-0.34,0.36-0.8,0.54-1.38,0.54c-0.38,0-0.72-0.1-1.02-0.3c-0.3-0.2-0.51-0.48-0.63-0.84c0.34-0.4,0.51-0.82,0.51-1.26
	c0-0.68-0.3-1.23-0.9-1.65c-0.6-0.42-1.4-0.63-2.4-0.63c-1.46,0-2.57,0.53-3.33,1.59s-1.14,2.5-1.14,4.32v0.9h6.9v0.75h-6.9v1.35
	c0,1.88,0.38,3.34,1.14,4.38c0.78,1.02,1.89,1.53,3.33,1.53c1.38,0,2.64-0.36,3.78-1.08l1.68-3.99h0.63l-0.33,5.7l-1.92-0.93
	C309.49,214.64,308.21,214.95,306.93,214.95z M315.41,214.68v-0.6l2.28-0.9v-13.17l-2.1-0.27v-0.6h5.82l4.74,11.22l4.71-11.22h5.52
	v0.6l-2.1,0.3v13.74l2.1,0.3v0.6h-6.9v-0.6l1.8-0.3v-13.65l-6.21,14.55h-0.36l-6.27-14.55v13.05l2.28,0.9v0.6H315.41z
	 M346.25,214.98c-1.44,0-2.75-0.33-3.93-0.99c-1.18-0.68-2.12-1.63-2.82-2.85c-0.68-1.24-1.02-2.65-1.02-4.23s0.34-2.98,1.02-4.2
	c0.7-1.22,1.64-2.16,2.82-2.82c1.18-0.68,2.49-1.02,3.93-1.02s2.75,0.34,3.93,1.02c1.18,0.66,2.11,1.6,2.79,2.82
	c0.7,1.22,1.05,2.62,1.05,4.2s-0.35,2.99-1.05,4.23c-0.68,1.22-1.61,2.17-2.79,2.85C349,214.65,347.69,214.98,346.25,214.98z
	 M346.25,214.32c1.48,0,2.59-0.54,3.33-1.62c0.76-1.08,1.14-2.51,1.14-4.29v-3c0-1.78-0.38-3.2-1.14-4.26
	c-0.74-1.08-1.85-1.62-3.33-1.62c-1.48,0-2.6,0.54-3.36,1.62c-0.74,1.06-1.11,2.48-1.11,4.26v3c0,1.78,0.37,3.21,1.11,4.29
	C343.65,213.78,344.77,214.32,346.25,214.32z M363.28,214.68v-0.6l2.1-0.3v-13.74l-2.1-0.3v-0.6h6.9v0.6l-1.8,0.3v6.39h7.41v-6.39
	l-1.8-0.3v-0.6h6.9v0.6l-2.1,0.3v13.74l2.1,0.3v0.6h-6.9v-0.6l1.8-0.3v-6.6h-7.41v6.6l1.8,0.3v0.6H363.28z M387.45,214.98
	c-1.28,0-2.33-0.33-3.15-0.99c-0.82-0.68-1.23-1.68-1.23-3c0-1.88,0.79-3.21,2.37-3.99c1.58-0.8,3.41-1.2,5.49-1.2h2.01v-2.31
	c0-1.04-0.12-1.84-0.36-2.4c-0.22-0.58-0.57-0.98-1.05-1.2c-0.48-0.24-1.13-0.36-1.95-0.36c-0.94,0-1.64,0.19-2.1,0.57
	c-0.46,0.36-0.69,0.85-0.69,1.47c0,0.58,0.28,0.96,0.84,1.14c0,0.5-0.19,0.94-0.57,1.32c-0.38,0.38-0.83,0.57-1.35,0.57
	c-0.56,0-1.01-0.15-1.35-0.45c-0.34-0.32-0.51-0.8-0.51-1.44c0-1.16,0.58-2.09,1.74-2.79c1.16-0.7,2.61-1.05,4.35-1.05
	c4,0,6,1.74,6,5.22v8.58c0,0.44,0.09,0.78,0.27,1.02c0.2,0.22,0.48,0.33,0.84,0.33c0.34,0,0.61-0.11,0.81-0.33
	c0.2-0.24,0.3-0.56,0.3-0.96h0.63c0,0.7-0.23,1.25-0.69,1.65c-0.44,0.4-1.06,0.6-1.86,0.6c-0.92,0-1.7-0.26-2.34-0.78
	c-0.62-0.54-0.94-1.37-0.96-2.49c-0.48,1.02-1.22,1.82-2.22,2.4C389.74,214.69,388.65,214.98,387.45,214.98z M389.1,213.66
	c0.54,0,1.09-0.16,1.65-0.48c0.58-0.32,1.07-0.78,1.47-1.38c0.4-0.62,0.64-1.36,0.72-2.22v-3.12h-2.01c-1.64,0-2.87,0.37-3.69,1.11
	c-0.8,0.72-1.2,1.74-1.2,3.06c0,1.1,0.26,1.88,0.78,2.34C387.34,213.43,388.1,213.66,389.1,213.66z M406.7,214.08l2.1-0.3v-13.74
	l-2.1-0.3v-0.6h8.22c2.06,0,3.53,0.29,4.41,0.87c0.88,0.56,1.32,1.48,1.32,2.76c0,1.86-1.18,3.05-3.54,3.57v0.09
	c3.04,0.42,4.56,1.77,4.56,4.05c0,1.4-0.51,2.45-1.53,3.15s-2.44,1.05-4.26,1.05h-9.18V214.08z M414.2,206.16
	c1.04,0,1.83-0.27,2.37-0.81c0.56-0.54,0.84-1.35,0.84-2.43v-0.12c0-0.98-0.28-1.71-0.84-2.19c-0.56-0.48-1.41-0.72-2.55-0.72h-2.22
	v6.27H414.2z M414.98,213.93c1.1,0,1.95-0.29,2.55-0.87c0.6-0.58,0.9-1.43,0.9-2.55v-0.21c0-1.14-0.3-1.99-0.9-2.55
	c-0.58-0.58-1.43-0.87-2.55-0.87h-3.18v7.05H414.98z M428.55,214.98c-1.28,0-2.33-0.33-3.15-0.99c-0.82-0.68-1.23-1.68-1.23-3
	c0-1.88,0.79-3.21,2.37-3.99c1.58-0.8,3.41-1.2,5.49-1.2h2.01v-2.31c0-1.04-0.12-1.84-0.36-2.4c-0.22-0.58-0.57-0.98-1.05-1.2
	c-0.48-0.24-1.13-0.36-1.95-0.36c-0.94,0-1.64,0.19-2.1,0.57c-0.46,0.36-0.69,0.85-0.69,1.47c0,0.58,0.28,0.96,0.84,1.14
	c0,0.5-0.19,0.94-0.57,1.32c-0.38,0.38-0.83,0.57-1.35,0.57c-0.56,0-1.01-0.15-1.35-0.45c-0.34-0.32-0.51-0.8-0.51-1.44
	c0-1.16,0.58-2.09,1.74-2.79c1.16-0.7,2.61-1.05,4.35-1.05c4,0,6,1.74,6,5.22v8.58c0,0.44,0.09,0.78,0.27,1.02
	c0.2,0.22,0.48,0.33,0.84,0.33c0.34,0,0.61-0.11,0.81-0.33c0.2-0.24,0.3-0.56,0.3-0.96h0.63c0,0.7-0.23,1.25-0.69,1.65
	c-0.44,0.4-1.06,0.6-1.86,0.6c-0.92,0-1.7-0.26-2.34-0.78c-0.62-0.54-0.94-1.37-0.96-2.49c-0.48,1.02-1.22,1.82-2.22,2.4
	C430.84,214.69,429.75,214.98,428.55,214.98z M430.2,213.66c0.54,0,1.09-0.16,1.65-0.48c0.58-0.32,1.07-0.78,1.47-1.38
	c0.4-0.62,0.64-1.36,0.72-2.22v-3.12h-2.01c-1.64,0-2.87,0.37-3.69,1.11c-0.8,0.72-1.2,1.74-1.2,3.06c0,1.1,0.26,1.88,0.78,2.34
	C428.44,213.43,429.2,213.66,430.2,213.66z M448.88,214.98c-1.44,0-2.75-0.33-3.93-0.99c-1.18-0.68-2.12-1.63-2.82-2.85
	c-0.68-1.24-1.02-2.65-1.02-4.23c0-1.66,0.36-3.1,1.08-4.32c0.74-1.22,1.7-2.14,2.88-2.76c1.18-0.64,2.45-0.96,3.81-0.96
	c1.14,0,2.18,0.2,3.12,0.6c0.94,0.38,1.68,0.92,2.22,1.62c0.56,0.7,0.84,1.49,0.84,2.37c0,0.66-0.17,1.17-0.51,1.53
	c-0.34,0.34-0.79,0.51-1.35,0.51c-0.54,0-0.99-0.18-1.35-0.54c-0.36-0.36-0.54-0.81-0.54-1.35c0.3-0.2,0.51-0.42,0.63-0.66
	c0.12-0.24,0.18-0.54,0.18-0.9c0-0.74-0.3-1.34-0.9-1.8c-0.58-0.48-1.36-0.72-2.34-0.72c-1.44,0-2.55,0.52-3.33,1.56
	c-0.76,1.02-1.14,2.46-1.14,4.32v3c0,1.78,0.37,3.21,1.11,4.29c0.76,1.08,1.88,1.62,3.36,1.62c1.36,0,2.54-0.38,3.54-1.14
	c1.02-0.78,1.65-1.8,1.89-3.06H455c-0.28,1.48-0.98,2.66-2.1,3.54C451.8,214.54,450.46,214.98,448.88,214.98z"/>
<path class="st1" d="M83.21,242.83c-0.67,0-1.27-0.12-1.8-0.36c-0.53-0.24-0.95-0.58-1.26-1.02c-0.31-0.43-0.47-0.93-0.49-1.5h1.01
	c0.02,0.4,0.14,0.75,0.37,1.04c0.23,0.29,0.53,0.52,0.91,0.69c0.38,0.16,0.8,0.24,1.26,0.24c0.5,0,0.95-0.09,1.33-0.28
	c0.39-0.19,0.69-0.45,0.91-0.77c0.22-0.33,0.33-0.7,0.33-1.12c0-0.44-0.11-0.83-0.34-1.17c-0.22-0.34-0.55-0.6-0.96-0.79
	c-0.42-0.19-0.91-0.28-1.49-0.28h-0.64v-0.89h0.64c0.47,0,0.89-0.09,1.25-0.26c0.37-0.17,0.65-0.42,0.86-0.73
	c0.21-0.31,0.31-0.68,0.31-1.1c0-0.4-0.09-0.75-0.27-1.06c-0.18-0.31-0.44-0.54-0.77-0.72c-0.33-0.17-0.71-0.26-1.15-0.26
	c-0.42,0-0.81,0.08-1.16,0.24c-0.35,0.16-0.64,0.39-0.85,0.69c-0.21,0.3-0.33,0.65-0.34,1.06h-0.96c0.01-0.57,0.17-1.07,0.47-1.5
	c0.3-0.43,0.7-0.77,1.2-1.01c0.5-0.25,1.05-0.37,1.66-0.37c0.64,0,1.2,0.13,1.67,0.39c0.47,0.26,0.83,0.61,1.09,1.05
	c0.26,0.43,0.39,0.91,0.39,1.43c0,0.62-0.17,1.15-0.51,1.6c-0.34,0.44-0.79,0.75-1.36,0.92v0.07c0.7,0.14,1.24,0.45,1.64,0.93
	c0.4,0.48,0.6,1.06,0.6,1.75c0,0.58-0.15,1.11-0.46,1.57c-0.31,0.46-0.72,0.83-1.26,1.1C84.51,242.7,83.9,242.83,83.21,242.83z
	 M91.43,242.87c-0.49,0-0.94-0.1-1.35-0.29c-0.41-0.2-0.73-0.48-0.97-0.84c-0.24-0.37-0.36-0.82-0.36-1.34
	c0-0.4,0.08-0.75,0.23-1.02c0.15-0.28,0.37-0.5,0.65-0.68c0.28-0.18,0.61-0.32,1-0.42c0.38-0.1,0.81-0.18,1.27-0.24
	c0.46-0.06,0.85-0.11,1.16-0.15c0.32-0.04,0.56-0.11,0.73-0.2c0.17-0.09,0.25-0.24,0.25-0.45v-0.19c0-0.56-0.17-1-0.5-1.32
	c-0.33-0.32-0.81-0.48-1.43-0.48c-0.59,0-1.07,0.13-1.44,0.39c-0.37,0.26-0.63,0.56-0.78,0.92l-0.9-0.32
	c0.18-0.45,0.44-0.81,0.77-1.07c0.33-0.27,0.69-0.46,1.1-0.58c0.4-0.12,0.82-0.18,1.23-0.18c0.31,0,0.64,0.04,0.97,0.12
	c0.34,0.08,0.66,0.22,0.95,0.43c0.29,0.2,0.53,0.48,0.71,0.84c0.18,0.35,0.27,0.81,0.27,1.35v5.56h-0.95v-1.29h-0.06
	c-0.11,0.24-0.28,0.48-0.51,0.7c-0.22,0.23-0.5,0.41-0.84,0.56C92.28,242.79,91.88,242.87,91.43,242.87z M91.56,242
	c0.5,0,0.94-0.11,1.31-0.33c0.37-0.22,0.65-0.52,0.85-0.89c0.2-0.37,0.3-0.78,0.3-1.23v-1.18c-0.07,0.07-0.19,0.13-0.36,0.18
	c-0.16,0.05-0.35,0.1-0.57,0.14c-0.21,0.04-0.43,0.07-0.64,0.1c-0.21,0.03-0.4,0.05-0.58,0.07c-0.46,0.06-0.86,0.15-1.18,0.27
	c-0.33,0.12-0.58,0.29-0.75,0.5c-0.17,0.21-0.26,0.48-0.26,0.81c0,0.5,0.18,0.88,0.53,1.16C90.57,241.86,91.02,242,91.56,242z
	 M97.5,242.68v-8.18h6.19v8.18h-0.95v-7.29h-4.29v7.29H97.5z M109.39,242.85c-0.71,0-1.33-0.18-1.88-0.54
	c-0.54-0.36-0.96-0.85-1.27-1.49c-0.31-0.63-0.46-1.37-0.46-2.2c0-0.84,0.15-1.57,0.46-2.21c0.31-0.64,0.73-1.14,1.27-1.49
	c0.54-0.36,1.17-0.54,1.88-0.54s1.33,0.18,1.87,0.54c0.54,0.36,0.96,0.86,1.27,1.49c0.31,0.64,0.46,1.37,0.46,2.21
	c0,0.83-0.15,1.57-0.46,2.2c-0.31,0.63-0.73,1.13-1.27,1.49C110.72,242.67,110.1,242.85,109.39,242.85z M109.39,241.98
	c0.57,0,1.05-0.15,1.44-0.46c0.39-0.3,0.69-0.71,0.89-1.22c0.21-0.51,0.31-1.07,0.31-1.68c0-0.61-0.1-1.17-0.31-1.68
	c-0.2-0.51-0.5-0.92-0.89-1.23c-0.39-0.31-0.88-0.46-1.44-0.46c-0.56,0-1.05,0.15-1.44,0.46c-0.39,0.31-0.69,0.72-0.9,1.23
	c-0.2,0.51-0.3,1.07-0.3,1.68c0,0.61,0.1,1.17,0.3,1.68c0.21,0.51,0.51,0.92,0.9,1.22C108.34,241.83,108.82,241.98,109.39,241.98z
	 M115.07,242.68v-8.18h3.22c0.87,0,1.56,0.19,2.06,0.57c0.5,0.38,0.76,0.88,0.76,1.52c0,0.49-0.14,0.88-0.42,1.17
	c-0.28,0.29-0.66,0.5-1.13,0.62c0.32,0.05,0.61,0.17,0.88,0.35c0.27,0.18,0.5,0.41,0.67,0.7c0.17,0.29,0.26,0.64,0.26,1.04
	c0,0.43-0.11,0.81-0.32,1.14c-0.21,0.33-0.51,0.6-0.9,0.79c-0.39,0.19-0.85,0.29-1.37,0.29H115.07z M115.98,241.8h2.79
	c0.5,0,0.9-0.13,1.19-0.38c0.29-0.26,0.44-0.6,0.44-1.03c0-0.46-0.14-0.82-0.42-1.1c-0.27-0.28-0.64-0.42-1.1-0.42h-2.89V241.8z
	 M115.98,238.03h2.38c0.37,0,0.69-0.06,0.96-0.17c0.27-0.11,0.48-0.27,0.62-0.48c0.15-0.21,0.22-0.46,0.22-0.74
	c0-0.4-0.16-0.71-0.49-0.93c-0.33-0.22-0.78-0.34-1.37-0.34h-2.32V238.03z M128.96,238.15v0.9h-4.81v-0.9H128.96z M124.38,234.5
	v8.18h-0.95v-8.18H124.38z M129.66,234.5v8.18h-0.95v-8.18H129.66z M132.19,242.68v-8.18h0.95v8.18H132.19z M132.68,233.09
	c-0.19,0-0.36-0.07-0.5-0.2c-0.14-0.13-0.21-0.3-0.21-0.49c0-0.19,0.07-0.35,0.21-0.48c0.14-0.14,0.31-0.2,0.5-0.2
	c0.2,0,0.36,0.07,0.5,0.2c0.14,0.13,0.21,0.29,0.21,0.48c0,0.19-0.07,0.35-0.21,0.49C133.04,233.03,132.87,233.09,132.68,233.09z
	 M135.15,235.39v-0.9h6.39v0.9h-2.71v7.29h-0.95v-7.29H135.15z M144.34,237.66h2.39c0.92,0,1.63,0.22,2.13,0.67
	c0.5,0.45,0.75,1.05,0.75,1.82c0,0.51-0.11,0.95-0.34,1.33c-0.22,0.38-0.55,0.68-0.98,0.89c-0.43,0.21-0.95,0.31-1.57,0.31h-3.18
	v-8.18h0.95v7.29h2.23c0.58,0,1.05-0.14,1.4-0.41c0.35-0.28,0.53-0.67,0.53-1.18c0-0.52-0.18-0.93-0.53-1.21s-0.82-0.43-1.4-0.43
	h-2.39V237.66z M159.37,245.47v-13.7h0.95v13.7H159.37z M159.37,242.85c-0.56,0-1.08-0.1-1.55-0.31c-0.47-0.21-0.88-0.5-1.23-0.87
	c-0.34-0.38-0.61-0.83-0.8-1.34s-0.29-1.08-0.29-1.69c0-0.62,0.1-1.19,0.29-1.71c0.19-0.52,0.46-0.97,0.8-1.34
	c0.35-0.38,0.76-0.67,1.23-0.87c0.47-0.21,0.99-0.31,1.55-0.31h0.28v8.46H159.37z M159.37,241.98h0.15v-6.72h-0.15
	c-0.46,0-0.87,0.09-1.23,0.27c-0.36,0.18-0.67,0.42-0.92,0.74c-0.25,0.31-0.44,0.67-0.57,1.08c-0.13,0.4-0.2,0.83-0.2,1.29
	c0,0.6,0.12,1.16,0.35,1.67c0.24,0.51,0.57,0.92,1.01,1.22C158.23,241.83,158.76,241.99,159.37,241.98z M160.32,242.85h-0.29v-8.46
	h0.29c0.56,0,1.08,0.1,1.55,0.31c0.48,0.21,0.89,0.5,1.23,0.87c0.35,0.38,0.62,0.82,0.81,1.34c0.19,0.52,0.29,1.09,0.29,1.71
	c0,0.61-0.1,1.18-0.29,1.69s-0.46,0.96-0.81,1.34c-0.34,0.38-0.75,0.67-1.23,0.87C161.4,242.75,160.88,242.85,160.32,242.85z
	 M160.32,241.98c0.46,0,0.87-0.09,1.22-0.26c0.36-0.18,0.67-0.42,0.92-0.74c0.26-0.31,0.45-0.67,0.58-1.07
	c0.13-0.4,0.2-0.83,0.2-1.28c0-0.6-0.12-1.16-0.35-1.67c-0.23-0.51-0.57-0.92-1-1.23c-0.44-0.31-0.96-0.47-1.57-0.47h-0.16v6.72
	H160.32z M169.46,242.85c-0.71,0-1.33-0.18-1.88-0.54c-0.54-0.36-0.96-0.85-1.27-1.49c-0.31-0.63-0.46-1.37-0.46-2.2
	c0-0.84,0.15-1.57,0.46-2.21c0.3-0.64,0.73-1.14,1.27-1.49c0.54-0.36,1.17-0.54,1.88-0.54c0.71,0,1.33,0.18,1.87,0.54
	c0.54,0.36,0.96,0.86,1.27,1.49c0.31,0.64,0.46,1.37,0.46,2.21c0,0.83-0.15,1.57-0.46,2.2c-0.3,0.63-0.73,1.13-1.27,1.49
	C170.79,242.67,170.17,242.85,169.46,242.85z M169.46,241.98c0.57,0,1.05-0.15,1.44-0.46c0.39-0.3,0.69-0.71,0.89-1.22
	c0.21-0.51,0.31-1.07,0.31-1.68c0-0.61-0.1-1.17-0.31-1.68c-0.2-0.51-0.5-0.92-0.89-1.23c-0.39-0.31-0.88-0.46-1.44-0.46
	c-0.56,0-1.04,0.15-1.44,0.46c-0.39,0.31-0.69,0.72-0.9,1.23c-0.2,0.51-0.3,1.07-0.3,1.68c0,0.61,0.1,1.17,0.3,1.68
	c0.21,0.51,0.51,0.92,0.9,1.22C168.41,241.83,168.89,241.98,169.46,241.98z M175.14,245.75V234.5h0.92v1.56h0.11
	c0.11-0.24,0.27-0.49,0.47-0.75c0.2-0.26,0.46-0.48,0.79-0.65c0.33-0.18,0.75-0.27,1.25-0.27c0.67,0,1.26,0.18,1.77,0.53
	c0.51,0.35,0.9,0.85,1.18,1.48c0.28,0.63,0.43,1.37,0.43,2.21c0,0.85-0.14,1.59-0.43,2.22c-0.28,0.64-0.68,1.13-1.18,1.49
	c-0.5,0.35-1.09,0.53-1.76,0.53c-0.49,0-0.91-0.09-1.24-0.27c-0.33-0.18-0.6-0.4-0.8-0.66c-0.2-0.26-0.36-0.52-0.47-0.77h-0.08v4.59
	H175.14z M176.08,238.59c0,0.66,0.1,1.25,0.29,1.76c0.2,0.51,0.48,0.91,0.85,1.2c0.37,0.29,0.82,0.43,1.35,0.43
	c0.54,0,1-0.15,1.38-0.45c0.38-0.3,0.66-0.71,0.86-1.22c0.2-0.51,0.3-1.08,0.3-1.72c0-0.63-0.1-1.2-0.29-1.7
	c-0.19-0.5-0.48-0.9-0.85-1.2c-0.38-0.3-0.84-0.45-1.38-0.45c-0.53,0-0.99,0.14-1.36,0.43c-0.37,0.28-0.66,0.68-0.85,1.18
	C176.18,237.36,176.08,237.94,176.08,238.59z M188.42,241.35l3.07-6.86h0.92l-3.62,8.18h-0.76l-3.57-8.18h0.9L188.42,241.35z
	 M185.09,234.5v8.18h-0.95v-8.18H185.09z M191.74,242.68v-8.18h0.95v8.18H191.74z M195.58,245.75c-0.19,0-0.36-0.02-0.53-0.05
	c-0.16-0.04-0.29-0.07-0.39-0.12l0.26-0.84c0.32,0.1,0.61,0.13,0.86,0.11c0.25-0.02,0.48-0.14,0.67-0.34c0.2-0.2,0.37-0.5,0.52-0.92
	l0.3-0.83l-3.01-8.26h1.03l2.43,6.93h0.07l2.43-6.93h1.03l-3.46,9.48c-0.15,0.39-0.32,0.72-0.54,0.99
	c-0.21,0.27-0.46,0.46-0.74,0.59C196.24,245.68,195.92,245.75,195.58,245.75z M206.83,235.39v-0.9h6.39v0.9h-2.71v7.29h-0.95v-7.29
	H206.83z M217.08,242.87c-0.49,0-0.94-0.1-1.35-0.29c-0.41-0.2-0.73-0.48-0.97-0.84c-0.24-0.37-0.36-0.82-0.36-1.34
	c0-0.4,0.08-0.75,0.23-1.02c0.15-0.28,0.37-0.5,0.65-0.68c0.28-0.18,0.61-0.32,1-0.42c0.38-0.1,0.81-0.18,1.27-0.24
	c0.46-0.06,0.85-0.11,1.16-0.15c0.32-0.04,0.56-0.11,0.73-0.2c0.17-0.09,0.25-0.24,0.25-0.45v-0.19c0-0.56-0.17-1-0.5-1.32
	c-0.33-0.32-0.81-0.48-1.43-0.48c-0.59,0-1.07,0.13-1.44,0.39c-0.37,0.26-0.63,0.56-0.78,0.92l-0.9-0.32
	c0.18-0.45,0.44-0.81,0.77-1.07c0.33-0.27,0.69-0.46,1.1-0.58c0.4-0.12,0.82-0.18,1.23-0.18c0.31,0,0.64,0.04,0.98,0.12
	c0.34,0.08,0.66,0.22,0.95,0.43c0.29,0.2,0.53,0.48,0.71,0.84c0.18,0.35,0.27,0.81,0.27,1.35v5.56h-0.95v-1.29h-0.06
	c-0.11,0.24-0.28,0.48-0.51,0.7c-0.22,0.23-0.51,0.41-0.84,0.56C217.93,242.79,217.54,242.87,217.08,242.87z M217.21,242
	c0.5,0,0.94-0.11,1.31-0.33c0.37-0.22,0.65-0.52,0.85-0.89c0.2-0.37,0.3-0.78,0.3-1.23v-1.18c-0.07,0.07-0.19,0.13-0.36,0.18
	c-0.16,0.05-0.35,0.1-0.57,0.14c-0.21,0.04-0.43,0.07-0.64,0.1c-0.21,0.03-0.41,0.05-0.58,0.07c-0.46,0.06-0.86,0.15-1.18,0.27
	c-0.33,0.12-0.58,0.29-0.75,0.5c-0.17,0.21-0.26,0.48-0.26,0.81c0,0.5,0.18,0.88,0.53,1.16C216.23,241.86,216.67,242,217.21,242z
	 M231.64,241.35l3.07-6.86h0.92l-3.62,8.18h-0.76l-3.58-8.18h0.91L231.64,241.35z M228.31,234.5v8.18h-0.95v-8.18H228.31z
	 M234.97,242.68v-8.18h0.95v8.18H234.97z M239.39,241.33l4.32-6.83h1.13v8.18h-0.95v-6.83l-4.3,6.83h-1.15v-8.18h0.95V241.33z
	 M251.04,240.59h1.01c0.03,0.44,0.22,0.78,0.57,1.02c0.35,0.24,0.81,0.37,1.37,0.37c0.59,0,1.08-0.13,1.46-0.39
	c0.38-0.27,0.58-0.65,0.58-1.16c0-0.31-0.07-0.58-0.22-0.8c-0.14-0.23-0.34-0.4-0.59-0.53c-0.25-0.13-0.52-0.2-0.84-0.2h-1.43v-0.87
	h1.41c0.49-0.03,0.86-0.16,1.11-0.39c0.25-0.24,0.38-0.55,0.38-0.93c0-0.44-0.15-0.79-0.46-1.05c-0.31-0.27-0.73-0.4-1.26-0.4
	c-0.54,0-0.98,0.13-1.34,0.39c-0.35,0.26-0.54,0.6-0.57,1.01h-1c0.02-0.44,0.15-0.83,0.4-1.17c0.25-0.34,0.59-0.61,1.01-0.8
	c0.43-0.19,0.91-0.29,1.45-0.29c0.55,0,1.03,0.1,1.44,0.3c0.41,0.2,0.72,0.47,0.95,0.82c0.22,0.34,0.33,0.73,0.33,1.16
	c0,0.45-0.12,0.82-0.37,1.11c-0.25,0.29-0.56,0.49-0.94,0.61v0.08c0.29,0.03,0.55,0.14,0.77,0.32c0.22,0.18,0.4,0.41,0.53,0.7
	s0.19,0.6,0.19,0.94c0,0.48-0.13,0.91-0.38,1.27c-0.25,0.36-0.6,0.64-1.06,0.85c-0.45,0.2-0.96,0.3-1.55,0.3
	c-0.57,0-1.07-0.09-1.51-0.28c-0.44-0.19-0.79-0.46-1.05-0.79C251.19,241.43,251.05,241.04,251.04,240.59z M258.93,242.68v-8.18
	h3.22c0.87,0,1.56,0.19,2.06,0.57c0.5,0.38,0.76,0.88,0.76,1.52c0,0.49-0.14,0.88-0.42,1.17c-0.28,0.29-0.66,0.5-1.13,0.62
	c0.32,0.05,0.61,0.17,0.88,0.35c0.27,0.18,0.5,0.41,0.67,0.7c0.17,0.29,0.26,0.64,0.26,1.04c0,0.43-0.11,0.81-0.32,1.14
	c-0.21,0.33-0.51,0.6-0.9,0.79c-0.39,0.19-0.85,0.29-1.37,0.29H258.93z M259.84,241.8h2.79c0.5,0,0.9-0.13,1.19-0.38
	c0.29-0.26,0.44-0.6,0.44-1.03c0-0.46-0.14-0.82-0.42-1.1c-0.27-0.28-0.64-0.42-1.1-0.42h-2.89V241.8z M259.84,238.03h2.38
	c0.37,0,0.69-0.06,0.96-0.17c0.27-0.11,0.48-0.27,0.62-0.48c0.15-0.21,0.22-0.46,0.22-0.74c0-0.4-0.16-0.71-0.49-0.93
	c-0.33-0.22-0.78-0.34-1.37-0.34h-2.32V238.03z M268.16,231.77v0.96c0,0.29-0.05,0.6-0.16,0.93c-0.1,0.33-0.26,0.64-0.46,0.95
	c-0.2,0.31-0.44,0.57-0.72,0.8l-0.52-0.45c0.27-0.31,0.49-0.66,0.68-1.04c0.18-0.38,0.28-0.78,0.28-1.18v-0.97H268.16z
	 M274.33,242.68v-7.3h-2.25c-0.59,0-1.03,0.13-1.34,0.37c-0.3,0.24-0.45,0.6-0.45,1.08c0,0.48,0.14,0.84,0.43,1.08
	c0.29,0.24,0.71,0.36,1.26,0.36h2.62v0.9h-2.62c-0.57,0-1.04-0.09-1.44-0.27c-0.39-0.18-0.69-0.45-0.89-0.79
	c-0.21-0.35-0.31-0.77-0.31-1.27c0-0.5,0.11-0.92,0.31-1.27c0.21-0.35,0.52-0.61,0.93-0.79c0.41-0.18,0.91-0.27,1.5-0.27h3.16v8.18
	H274.33z M268.82,242.68l2.36-4.07h1.04l-2.35,4.07H268.82z M277.25,242.68l3.61-4.13l-3.56-4.05h1.15l3.14,3.64h0.55v-3.64h0.95
	v3.64h0.54l3.14-3.64h1.16l-3.55,4.05l3.6,4.13h-1.17l-3.18-3.65h-0.52v3.65h-0.95v-3.65h-0.52l-3.2,3.65H277.25z M292.93,242.85
	c-0.76,0-1.42-0.18-1.98-0.53c-0.56-0.36-0.99-0.85-1.29-1.49c-0.3-0.64-0.45-1.37-0.45-2.19c0-0.82,0.15-1.56,0.45-2.2
	c0.31-0.64,0.73-1.14,1.26-1.51c0.54-0.37,1.16-0.55,1.87-0.55c0.44,0,0.87,0.08,1.28,0.25c0.41,0.16,0.78,0.41,1.11,0.74
	c0.33,0.33,0.59,0.75,0.78,1.25c0.19,0.5,0.29,1.09,0.29,1.78v0.47h-6.39v-0.84h5.42c0-0.52-0.11-1-0.32-1.42
	c-0.21-0.42-0.5-0.76-0.88-1c-0.37-0.24-0.81-0.37-1.3-0.37c-0.52,0-0.98,0.14-1.37,0.42c-0.39,0.28-0.7,0.64-0.93,1.1
	c-0.22,0.46-0.33,0.95-0.33,1.49v0.5c0,0.65,0.11,1.22,0.33,1.71c0.23,0.48,0.55,0.86,0.96,1.12c0.42,0.27,0.91,0.4,1.48,0.4
	c0.39,0,0.73-0.06,1.02-0.18c0.29-0.12,0.54-0.28,0.74-0.49c0.2-0.21,0.36-0.43,0.46-0.68l0.9,0.29c-0.12,0.34-0.33,0.66-0.61,0.95
	c-0.28,0.29-0.63,0.53-1.05,0.7C293.96,242.76,293.48,242.85,292.93,242.85z M302.61,241.35l3.07-6.86h0.92l-3.62,8.18h-0.76
	l-3.57-8.18h0.91L302.61,241.35z M299.29,234.5v8.18h-0.95v-8.18H299.29z M305.94,242.68v-8.18h0.95v8.18H305.94z M312.59,242.85
	c-0.71,0-1.33-0.18-1.88-0.54c-0.54-0.36-0.96-0.85-1.27-1.49c-0.31-0.63-0.46-1.37-0.46-2.2c0-0.84,0.15-1.57,0.46-2.21
	c0.3-0.64,0.73-1.14,1.27-1.49c0.54-0.36,1.17-0.54,1.88-0.54c0.71,0,1.33,0.18,1.87,0.54c0.54,0.36,0.96,0.86,1.27,1.49
	c0.31,0.64,0.46,1.37,0.46,2.21c0,0.83-0.15,1.57-0.46,2.2c-0.3,0.63-0.73,1.13-1.27,1.49C313.92,242.67,313.3,242.85,312.59,242.85
	z M312.59,241.98c0.57,0,1.05-0.15,1.44-0.46c0.39-0.3,0.69-0.71,0.9-1.22c0.21-0.51,0.31-1.07,0.31-1.68c0-0.61-0.1-1.17-0.31-1.68
	c-0.2-0.51-0.5-0.92-0.9-1.23c-0.39-0.31-0.88-0.46-1.44-0.46c-0.56,0-1.05,0.15-1.44,0.46c-0.39,0.31-0.69,0.72-0.9,1.23
	c-0.2,0.51-0.3,1.07-0.3,1.68c0,0.61,0.1,1.17,0.3,1.68c0.21,0.51,0.51,0.92,0.9,1.22C311.54,241.83,312.02,241.98,312.59,241.98z
	 M321.47,242.85c-0.73,0-1.37-0.18-1.91-0.55c-0.54-0.37-0.96-0.87-1.26-1.5c-0.3-0.64-0.45-1.36-0.45-2.17
	c0-0.82,0.15-1.55,0.45-2.19c0.31-0.64,0.73-1.14,1.27-1.5c0.54-0.37,1.17-0.55,1.88-0.55c0.55,0,1.04,0.11,1.49,0.32
	c0.44,0.21,0.81,0.51,1.1,0.89c0.29,0.38,0.47,0.82,0.55,1.33h-0.96c-0.1-0.46-0.34-0.86-0.72-1.18c-0.38-0.33-0.86-0.5-1.44-0.5
	c-0.52,0-0.98,0.14-1.38,0.43c-0.4,0.28-0.72,0.67-0.94,1.18c-0.22,0.5-0.34,1.08-0.34,1.74c0,0.66,0.11,1.25,0.33,1.76
	c0.22,0.51,0.53,0.9,0.93,1.19c0.4,0.29,0.87,0.43,1.41,0.43c0.36,0,0.69-0.07,0.99-0.2c0.3-0.14,0.55-0.33,0.76-0.59
	c0.21-0.25,0.34-0.55,0.42-0.9h0.96c-0.07,0.49-0.25,0.93-0.53,1.32c-0.28,0.38-0.64,0.68-1.08,0.9
	C322.54,242.74,322.04,242.85,321.47,242.85z M331.55,242.68v-7.3h-2.25c-0.59,0-1.03,0.13-1.34,0.37c-0.3,0.24-0.45,0.6-0.45,1.08
	c0,0.48,0.14,0.84,0.43,1.08c0.29,0.24,0.71,0.36,1.26,0.36h2.62v0.9h-2.62c-0.57,0-1.04-0.09-1.44-0.27
	c-0.39-0.18-0.69-0.45-0.89-0.79c-0.21-0.35-0.31-0.77-0.31-1.27c0-0.5,0.1-0.92,0.31-1.27c0.21-0.35,0.52-0.61,0.93-0.79
	c0.41-0.18,0.91-0.27,1.5-0.27h3.16v8.18H331.55z M326.03,242.68l2.35-4.07h1.04l-2.35,4.07H326.03z M338.66,240.59h1.01
	c0.03,0.44,0.22,0.78,0.57,1.02c0.35,0.24,0.81,0.37,1.37,0.37c0.59,0,1.08-0.13,1.46-0.39c0.38-0.27,0.58-0.65,0.58-1.16
	c0-0.31-0.07-0.58-0.22-0.8c-0.14-0.23-0.34-0.4-0.59-0.53c-0.24-0.13-0.52-0.2-0.84-0.2h-1.43v-0.87h1.41
	c0.49-0.03,0.86-0.16,1.11-0.39c0.25-0.24,0.38-0.55,0.38-0.93c0-0.44-0.15-0.79-0.46-1.05c-0.31-0.27-0.73-0.4-1.26-0.4
	c-0.54,0-0.98,0.13-1.34,0.39c-0.36,0.26-0.54,0.6-0.57,1.01h-1c0.02-0.44,0.15-0.83,0.4-1.17c0.25-0.34,0.58-0.61,1.01-0.8
	c0.43-0.19,0.91-0.29,1.45-0.29c0.55,0,1.04,0.1,1.44,0.3c0.41,0.2,0.72,0.47,0.95,0.82c0.22,0.34,0.34,0.73,0.34,1.16
	c0,0.45-0.12,0.82-0.37,1.11c-0.24,0.29-0.56,0.49-0.94,0.61v0.08c0.29,0.03,0.55,0.14,0.77,0.32c0.22,0.18,0.4,0.41,0.53,0.7
	c0.13,0.28,0.19,0.6,0.19,0.94c0,0.48-0.13,0.91-0.38,1.27c-0.25,0.36-0.6,0.64-1.06,0.85c-0.45,0.2-0.96,0.3-1.55,0.3
	c-0.57,0-1.07-0.09-1.51-0.28c-0.44-0.19-0.79-0.46-1.05-0.79C338.81,241.43,338.68,241.04,338.66,240.59z M350.78,242.68v-8.18H354
	c0.87,0,1.55,0.19,2.06,0.57c0.5,0.38,0.76,0.88,0.76,1.52c0,0.49-0.14,0.88-0.42,1.17c-0.28,0.29-0.66,0.5-1.13,0.62
	c0.32,0.05,0.61,0.17,0.88,0.35c0.27,0.18,0.5,0.41,0.67,0.7c0.17,0.29,0.26,0.64,0.26,1.04c0,0.43-0.11,0.81-0.32,1.14
	c-0.21,0.33-0.51,0.6-0.9,0.79c-0.39,0.19-0.84,0.29-1.37,0.29H350.78z M351.68,241.8h2.79c0.5,0,0.9-0.13,1.19-0.38
	c0.29-0.26,0.44-0.6,0.44-1.03c0-0.46-0.14-0.82-0.41-1.1c-0.27-0.28-0.64-0.42-1.1-0.42h-2.89V241.8z M351.68,238.03h2.38
	c0.37,0,0.69-0.06,0.96-0.17c0.27-0.11,0.48-0.27,0.62-0.48c0.15-0.21,0.22-0.46,0.22-0.74c0-0.4-0.16-0.71-0.49-0.93
	c-0.33-0.22-0.78-0.34-1.37-0.34h-2.32V238.03z M361.43,242.87c-0.49,0-0.95-0.1-1.35-0.29c-0.41-0.2-0.73-0.48-0.98-0.84
	c-0.24-0.37-0.36-0.82-0.36-1.34c0-0.4,0.08-0.75,0.23-1.02c0.15-0.28,0.37-0.5,0.65-0.68c0.28-0.18,0.61-0.32,1-0.42
	c0.38-0.1,0.81-0.18,1.27-0.24c0.46-0.06,0.85-0.11,1.16-0.15c0.32-0.04,0.56-0.11,0.73-0.2c0.17-0.09,0.25-0.24,0.25-0.45v-0.19
	c0-0.56-0.17-1-0.5-1.32c-0.33-0.32-0.81-0.48-1.43-0.48c-0.59,0-1.07,0.13-1.44,0.39c-0.37,0.26-0.63,0.56-0.78,0.92l-0.9-0.32
	c0.18-0.45,0.44-0.81,0.77-1.07c0.33-0.27,0.69-0.46,1.1-0.58c0.4-0.12,0.82-0.18,1.23-0.18c0.31,0,0.64,0.04,0.98,0.12
	c0.34,0.08,0.66,0.22,0.95,0.43c0.29,0.2,0.53,0.48,0.71,0.84c0.18,0.35,0.27,0.81,0.27,1.35v5.56h-0.95v-1.29h-0.06
	c-0.11,0.24-0.28,0.48-0.51,0.7c-0.22,0.23-0.5,0.41-0.84,0.56C362.28,242.79,361.88,242.87,361.43,242.87z M361.56,242
	c0.5,0,0.94-0.11,1.31-0.33c0.37-0.22,0.65-0.52,0.85-0.89c0.2-0.37,0.3-0.78,0.3-1.23v-1.18c-0.07,0.07-0.19,0.13-0.36,0.18
	c-0.16,0.05-0.35,0.1-0.57,0.14c-0.21,0.04-0.43,0.07-0.64,0.1c-0.21,0.03-0.4,0.05-0.57,0.07c-0.46,0.06-0.86,0.15-1.18,0.27
	c-0.33,0.12-0.58,0.29-0.75,0.5c-0.17,0.21-0.26,0.48-0.26,0.81c0,0.5,0.18,0.88,0.53,1.16C360.57,241.86,361.02,242,361.56,242z
	 M371.77,241.35l3.07-6.86h0.92l-3.62,8.18h-0.76l-3.57-8.18h0.91L371.77,241.35z M368.44,234.5v8.18h-0.95v-8.18H368.44z
	 M375.1,242.68v-8.18h0.95v8.18H375.1z M379.52,241.33l4.32-6.83h1.13v8.18h-0.95v-6.83l-4.3,6.83h-1.15v-8.18h0.95V241.33z"/>
<path class="st2" d="M231.72,290.68c-8-8-9.5-22.5-9.5-29.5 M688.3,1.68c-8,18-22.49,39.68-33.56,52
	c-21.41,23.81-47.68,35.3-78.21,43.97c-64.81,18.39-129.54,20.64-196.13,22.99c-34.47,1.21-135.44,0.02-154.15,60.55"/>
<circle class="st0" cx="230.72" cy="290.18" r="3.5"/>
<path class="st0" d="M240.34,280.62l3.87-9.33h-5.29v-0.42h5.67v0.3l-3.75,9.51h-0.43L240.34,280.62z"/>
</svg>
