<?xml version="1.0" encoding="utf-8"?>
<!-- Generator: Adobe Illustrator 25.3.1, SVG Export Plug-In . SVG Version: 6.00 Build 0)  -->
<svg version="1.1" id="Слой_1" xmlns="http://www.w3.org/2000/svg" xmlns:xlink="http://www.w3.org/1999/xlink" x="0px" y="0px"
	 viewBox="0 0 142 155" style="enable-background:new 0 0 142 155;" xml:space="preserve">
<style type="text/css">
	.st0{fill:#343434;}
	.st1{fill:none;stroke:#343434;stroke-width:0.5;stroke-linecap:round;}
</style>
<circle class="st0" cx="8.8" cy="152.8" r="2"/>
<path class="st0" d="M3.61,146.05H2.64v1.75H2.42v-1.75H0.08v-0.16l2.42-3.39h0.14v3.34h0.97V146.05z M0.29,145.84h2.13v-2.98
	L0.29,145.84z"/>
<path class="st1" d="M8.95,153.3c0.26-17.46,5.18-39.53,22.31-47.94c9.24-4.54,19.41-3.77,28.51,0.7
	c14.53,7.14,23.36,21.16,37.01,29.3c28.94,17.24,40.76-30.86,43.44-49.57c1.66-11.6,1.71-23.12,0.22-34.75
	C138.89,38.78,136.8,8.3,115.8,1.3"/>
</svg>
