<?xml version="1.0" encoding="utf-8"?>
<!-- Generator: Adobe Illustrator 25.3.1, SVG Export Plug-In . SVG Version: 6.00 Build 0)  -->
<svg version="1.1" id="Слой_1" xmlns="http://www.w3.org/2000/svg" xmlns:xlink="http://www.w3.org/1999/xlink" x="0px" y="0px"
	 viewBox="0 0 107 103" style="enable-background:new 0 0 107 103;" xml:space="preserve">
<style type="text/css">
	.st0{fill:none;stroke:#343434;stroke-width:0.5;stroke-linecap:round;}
	.st1{fill:#343434;}
</style>
<path class="st0" d="M2.86,99.79c-2.19-9.11-3.82-18.66-0.07-27.66C10.5,53.67,31.47,55.4,48.03,55.34
	c20.53-0.07,40.24-1.46,53.8-18.83c8.77-11.25,6.22-36.75-17.78-35.75"/>
<circle class="st1" cx="3.55" cy="100.26" r="2"/>
<path class="st1" d="M9.28,90.34l1.38-0.39l0.11,0.1l-0.03,1.17v2.34c0,0.25,0,0.49,0,0.74c0.01,0.25,0.01,0.5,0.02,0.75l1.21,0.05
	v0.16H9.21V95.1l1.29-0.05c0.01-0.25,0.01-0.5,0.01-0.75c0.01-0.25,0.01-0.5,0.01-0.74v-3.34L9.28,90.5V90.34z"/>
</svg>
