<?xml version="1.0" encoding="utf-8"?>
<!-- Generator: Adobe Illustrator 25.3.1, SVG Export Plug-In . SVG Version: 6.00 Build 0)  -->
<svg version="1.1" id="Слой_1" xmlns="http://www.w3.org/2000/svg" xmlns:xlink="http://www.w3.org/1999/xlink" x="0px" y="0px"
	 viewBox="0 0 143 205" style="enable-background:new 0 0 143 205;" xml:space="preserve">
<style type="text/css">
	.st0{fill:#343434;}
	.st1{fill:none;stroke:#343434;stroke-width:0.5;}
	.st2{fill:#FFFFFF;}
	.st3{fill:none;stroke:#343434;stroke-width:0.5;stroke-linecap:round;}
</style>
<path class="st0" d="M65.03,15.08v-0.78h9.46l0.13,3.36h-1.08l-0.42-2.41h-4.47c-0.01,0.81-0.03,1.62-0.04,2.43
	c0,0.81,0,1.61,0,2.39h2.94l0.27-1.81h0.87v4.67h-0.87l-0.27-1.98h-2.94c0,0.94,0,1.82,0,2.64c0.01,0.82,0.03,1.63,0.04,2.41
	l1.77,0.21v0.78h-5.4v-0.78l1.75-0.21c0.03-0.8,0.04-1.61,0.04-2.43s0-1.65,0-2.47V20.2c0-0.82,0-1.64,0-2.45
	c0-0.82-0.01-1.64-0.04-2.45L65.03,15.08z M75.93,27.02v-0.78l1.71-0.25v-10.7l-1.71-0.21v-0.78h3.52l4.26,10.45l4.03-10.45h3.74
	v0.78l-1.75,0.21c-0.01,0.8-0.03,1.61-0.04,2.43c0,0.82,0,1.65,0,2.47v0.93c0,0.81,0,1.63,0,2.45c0.01,0.81,0.03,1.63,0.04,2.45
	l1.75,0.21v0.78h-5.17v-0.78l1.6-0.21c0.03-0.8,0.04-1.61,0.04-2.43s0-1.64,0-2.45v-4.73l-4.12,10.6h-0.95l-4.35-10.6l0.11,3.59
	v5.99l1.56,0.25v0.78H75.93z M98.21,16.34L96.29,22h3.82L98.21,16.34z M92.43,27.02v-0.78l1.6-0.25l4.05-11.78h1.2l4.05,11.86
	l1.43,0.17v0.78h-5.17v-0.78l1.86-0.23l-1.04-3.12h-4.41l-1.06,3.1l1.86,0.25v0.78H92.43z"/>
<rect x="52.44" y="5.27" class="st1" width="64.5" height="30.5"/>
<rect x="48.24" y="5.4" transform="matrix(0.7071 -0.7071 0.7071 0.7071 11.257 41.3098)" class="st2" width="14.5" height="3.33"/>
<rect x="107.24" y="31.4" transform="matrix(0.7071 -0.7071 0.7071 0.7071 10.153 90.6443)" class="st2" width="14.5" height="3.33"/>
<circle class="st0" cx="9.19" cy="202.02" r="2"/>
<path class="st0" d="M4,195.26H3.03v1.75H2.81v-1.75H0.46v-0.16l2.42-3.39h0.14v3.34H4V195.26z M0.68,195.06h2.13v-2.98L0.68,195.06
	z"/>
<path class="st3" d="M9.33,202.52c0.26-17.46,5.18-39.53,22.31-47.94c9.24-4.54,19.41-3.77,28.51,0.7
	c14.53,7.14,23.36,21.16,37.01,29.3c28.94,17.24,40.76-30.86,43.44-49.57c1.66-11.6,1.71-23.12,0.22-34.75
	c-1.57-12.26-3.65-42.74-24.65-49.74"/>
</svg>
