<?xml version="1.0" encoding="utf-8"?>
<!-- Generator: Adobe Illustrator 25.3.1, SVG Export Plug-In . SVG Version: 6.00 Build 0)  -->
<svg version="1.1" id="Слой_1" xmlns="http://www.w3.org/2000/svg" xmlns:xlink="http://www.w3.org/1999/xlink" x="0px" y="0px"
	 viewBox="0 0 121 190" style="enable-background:new 0 0 121 190;" xml:space="preserve">
<style type="text/css">
	.st0{fill:none;stroke:#343434;stroke-width:0.5;stroke-linecap:round;}
	.st1{fill:#343434;}
</style>
<path class="st0" d="M3.06,0.62c-3.27,9.93-2.63,20.71-0.03,30.74c2.2,8.49,6.65,15.74,11.63,22.87c4.83,6.91,9.99,13.88,17.11,18.6
	c15.95,10.6,37.12,11.19,55.3,7.45c9.85-2.03,25.34-5.85,31.05-15.47c3.96-6.67,1.47-16.57-1.86-22.87
	c-5.25-9.92-16.44-15.81-27.52-14.48c-21.48,2.58-36.36,24.88-44.32,43.05c-3.56,8.13-6.01,16.9-5.96,25.86
	c0.09,13.63,5.55,26.5,11.8,38.34c4.52,8.56,27.29,43.93,32.66,51.97"/>
<circle class="st1" cx="83.42" cy="187.18" r="2"/>
<path class="st1" d="M91.89,180.56c0,0.32-0.07,0.61-0.21,0.87c-0.14,0.26-0.34,0.47-0.61,0.62c-0.26,0.15-0.58,0.23-0.96,0.23
	c-0.34,0-0.64-0.07-0.89-0.22c-0.25-0.15-0.42-0.37-0.5-0.66c0.03-0.08,0.08-0.12,0.16-0.12c0.07,0,0.13,0.04,0.17,0.13l0.23,0.54
	c0.11,0.05,0.22,0.1,0.34,0.13c0.13,0.03,0.28,0.05,0.46,0.05c0.5,0,0.89-0.14,1.15-0.41c0.27-0.28,0.4-0.65,0.4-1.12
	c0-0.52-0.13-0.9-0.38-1.14c-0.25-0.24-0.58-0.37-0.98-0.37c-0.2,0-0.39,0.02-0.55,0.06s-0.32,0.1-0.46,0.19h-0.14l0.17-2.39h2.48
	v0.22h-2.33l-0.14,1.99c0.16-0.08,0.32-0.14,0.48-0.18c0.16-0.04,0.33-0.06,0.51-0.06c0.49,0,0.88,0.15,1.17,0.44
	C91.74,179.67,91.89,180.06,91.89,180.56z"/>
</svg>
