<?xml version="1.0" encoding="utf-8"?>
<!-- Generator: Adobe Illustrator 25.3.1, SVG Export Plug-In . SVG Version: 6.00 Build 0)  -->
<svg version="1.1" id="Слой_1" xmlns="http://www.w3.org/2000/svg" xmlns:xlink="http://www.w3.org/1999/xlink" x="0px" y="0px"
	 viewBox="0 0 138 302" style="enable-background:new 0 0 138 302;" xml:space="preserve">
<style type="text/css">
	.st0{fill:#343434;}
	.st1{fill:none;stroke:#343434;stroke-width:0.5;}
	.st2{fill:#FAFAFA;}
	.st3{fill:none;stroke:#343434;stroke-width:0.5;stroke-linecap:round;}
	.st4{fill:#343434;fill-opacity:0.62;}
</style>
<path class="st0" d="M16.19,15.44v-0.78h9.46l0.13,3.36H24.7l-0.42-2.41h-4.47c-0.01,0.81-0.03,1.62-0.04,2.43c0,0.81,0,1.61,0,2.39
	h2.94l0.27-1.81h0.87v4.67h-0.87l-0.27-1.98h-2.94c0,0.94,0,1.82,0,2.64c0.01,0.82,0.03,1.63,0.04,2.41l1.77,0.21v0.78h-5.4V26.6
	l1.75-0.21c0.03-0.8,0.04-1.61,0.04-2.43s0-1.65,0-2.47v-0.93c0-0.82,0-1.64,0-2.45c0-0.82-0.01-1.64-0.04-2.45L16.19,15.44z
	 M27.1,27.38V26.6l1.71-0.25v-10.7l-1.71-0.21v-0.78h3.51l4.26,10.45l4.03-10.45h3.74v0.78l-1.75,0.21
	c-0.01,0.8-0.03,1.61-0.04,2.43c0,0.82,0,1.65,0,2.47v0.93c0,0.81,0,1.63,0,2.45c0.01,0.81,0.03,1.63,0.04,2.45l1.75,0.21v0.78
	h-5.17V26.6l1.6-0.21c0.03-0.8,0.04-1.61,0.04-2.43s0-1.64,0-2.45v-4.73l-4.12,10.6h-0.95l-4.35-10.6l0.11,3.59v5.99l1.56,0.25v0.78
	H27.1z M49.37,16.7l-1.92,5.66h3.82L49.37,16.7z M43.6,27.38V26.6l1.6-0.25l4.05-11.78h1.2l4.05,11.86l1.42,0.17v0.78h-5.17V26.6
	l1.86-0.23l-1.05-3.12h-4.41l-1.06,3.1l1.86,0.25v0.78H43.6z"/>
<rect x="3.6" y="5.63" class="st1" width="64.5" height="30.5"/>
<rect x="-0.59" y="6.02" transform="matrix(0.7071 -0.7071 0.7071 0.7071 -3.4803 6.9574)" class="st2" width="14.5" height="3.33"/>
<rect x="58.41" y="32.02" transform="matrix(0.7071 -0.7071 0.7071 0.7071 -4.5843 56.292)" class="st2" width="14.5" height="3.33"/>
<path class="st3" d="M26.35,42.88c-4,43,4.54,70.42,8.22,80.56c4.04,11.14,10.01,21.69,16.57,31.53
	c6.97,10.46,15.21,20.76,25.48,28.18c12.87,9.3,28.37,12.21,42.02,3.26c8.4-5.5,18.74-16.61,18.55-27.49
	c-0.17-9.5-8.58-14.24-17.16-13.73c-9.25,0.55-17.07,3.72-24.57,9.1c-13.63,9.77-26.27,21.55-36.45,34.9
	c-10.28,13.47-18.68,28.8-25.53,44.27c-5.35,12.07-9.89,24.88-11.51,38.06c-1.11,9.04-0.77,18.42,1.55,27.25"/>
<circle class="st0" cx="23.35" cy="299.38" r="2"/>
<path class="st0" d="M29.63,291.56h0.33c0.26,0,0.49-0.05,0.7-0.14c0.21-0.1,0.37-0.24,0.5-0.42c0.12-0.19,0.18-0.41,0.18-0.67
	c0-0.34-0.1-0.61-0.29-0.82c-0.19-0.21-0.47-0.31-0.82-0.31c-0.31,0-0.58,0.07-0.82,0.2l-0.21,0.52c-0.02,0.06-0.05,0.1-0.08,0.12
	c-0.03,0.02-0.06,0.02-0.1,0.02c-0.08,0-0.13-0.04-0.14-0.11c0.06-0.22,0.17-0.4,0.31-0.54c0.14-0.13,0.31-0.23,0.5-0.29
	c0.19-0.06,0.37-0.09,0.56-0.09c0.42,0,0.74,0.12,0.98,0.36c0.25,0.24,0.37,0.55,0.37,0.93c0,0.31-0.11,0.59-0.32,0.83
	c-0.21,0.24-0.51,0.4-0.9,0.47c0.44,0.04,0.78,0.18,1.02,0.42c0.24,0.24,0.36,0.57,0.36,0.98c0,0.3-0.07,0.57-0.22,0.78
	c-0.14,0.21-0.33,0.38-0.58,0.5c-0.24,0.11-0.51,0.17-0.81,0.17c-0.74,0-1.22-0.29-1.44-0.86c0-0.1,0.05-0.15,0.16-0.15
	c0.07,0,0.13,0.04,0.17,0.13l0.22,0.54c0.11,0.05,0.22,0.1,0.35,0.14c0.13,0.03,0.29,0.05,0.46,0.05c0.46,0,0.81-0.12,1.05-0.36
	c0.25-0.25,0.37-0.56,0.37-0.94c0-0.43-0.13-0.75-0.38-0.97c-0.25-0.22-0.63-0.34-1.15-0.34h-0.34V291.56z"/>
<path class="st4" d="M51.11,255.38v-0.4l1.75-0.29v-13.83l-1.75-0.27v-0.42h14.73v0.42l-1.77,0.27v13.83l1.77,0.29v0.4h-5.62v-0.4
	l1.77-0.29v-14.04h-7.03v14.04l1.75,0.29v0.4H51.11z M67.01,260.37l1.33-0.19v-14.06l-1.33-0.19v-0.38h3.23v1.99
	c0.32-0.68,0.74-1.22,1.27-1.6c0.54-0.39,1.19-0.59,1.94-0.59c0.9,0,1.69,0.21,2.38,0.65c0.68,0.42,1.22,1.01,1.6,1.79
	c0.38,0.76,0.57,1.65,0.57,2.68c0,1.03-0.19,1.92-0.57,2.7c-0.38,0.76-0.91,1.35-1.6,1.77c-0.68,0.42-1.48,0.63-2.38,0.63
	c-0.75,0-1.39-0.19-1.94-0.57c-0.53-0.39-0.96-0.92-1.27-1.6v6.78l1.79,0.19v0.38h-5.02V260.37z M73.26,255.09
	c1.76,0,2.64-1.22,2.64-3.67v-1.9c0-2.46-0.88-3.69-2.64-3.69c-0.56,0-1.06,0.16-1.52,0.49c-0.46,0.32-0.82,0.75-1.08,1.29
	c-0.27,0.54-0.41,1.13-0.42,1.77v2.03c0,0.65,0.13,1.25,0.38,1.82c0.27,0.56,0.63,1.01,1.08,1.35
	C72.17,254.93,72.69,255.09,73.26,255.09z M84.54,255.57c-0.91,0-1.74-0.21-2.49-0.63c-0.75-0.43-1.34-1.03-1.79-1.81
	c-0.43-0.78-0.65-1.68-0.65-2.68c0-1,0.22-1.89,0.65-2.66c0.44-0.77,1.04-1.37,1.79-1.79c0.75-0.43,1.58-0.65,2.49-0.65
	c0.91,0,1.74,0.21,2.49,0.65c0.75,0.42,1.34,1.01,1.77,1.79c0.44,0.77,0.67,1.66,0.67,2.66c0,1-0.22,1.89-0.67,2.68
	c-0.43,0.77-1.02,1.37-1.77,1.81C86.28,255.36,85.45,255.57,84.54,255.57z M84.54,255.15c0.94,0,1.64-0.34,2.11-1.03
	c0.48-0.68,0.72-1.59,0.72-2.72v-1.9c0-1.13-0.24-2.03-0.72-2.7c-0.47-0.68-1.17-1.03-2.11-1.03c-0.94,0-1.65,0.34-2.13,1.03
	c-0.47,0.67-0.7,1.57-0.7,2.7v1.9c0,1.13,0.23,2.03,0.7,2.72C82.89,254.81,83.6,255.15,84.54,255.15z M95.32,255.38V255l1.33-0.19
	v-8.7l-1.33-0.19v-0.38h4.37v0.38l-1.14,0.19v4.05h4.69v-4.05l-1.14-0.19v-0.38h4.37v0.38l-1.33,0.19v8.7l1.33,0.19v0.38h-4.37V255
	l1.14-0.19v-4.18h-4.69v4.18l1.14,0.19v0.38H95.32z M110.63,255.57c-0.81,0-1.48-0.21-2-0.63c-0.52-0.43-0.78-1.06-0.78-1.9
	c0-1.19,0.5-2.03,1.5-2.53c1-0.51,2.16-0.76,3.48-0.76h1.27v-1.46c0-0.66-0.08-1.16-0.23-1.52c-0.14-0.37-0.36-0.62-0.67-0.76
	c-0.3-0.15-0.72-0.23-1.24-0.23c-0.6,0-1.04,0.12-1.33,0.36c-0.29,0.23-0.44,0.54-0.44,0.93c0,0.37,0.18,0.61,0.53,0.72
	c0,0.32-0.12,0.6-0.36,0.84c-0.24,0.24-0.53,0.36-0.85,0.36c-0.36,0-0.64-0.1-0.86-0.29c-0.21-0.2-0.32-0.51-0.32-0.91
	c0-0.74,0.37-1.32,1.1-1.77c0.74-0.44,1.65-0.66,2.75-0.66c2.53,0,3.8,1.1,3.8,3.31v5.43c0,0.28,0.06,0.49,0.17,0.65
	c0.13,0.14,0.3,0.21,0.53,0.21c0.21,0,0.39-0.07,0.51-0.21c0.13-0.15,0.19-0.35,0.19-0.61h0.4c0,0.44-0.15,0.79-0.44,1.04
	c-0.28,0.25-0.67,0.38-1.18,0.38c-0.58,0-1.08-0.17-1.48-0.49c-0.39-0.34-0.6-0.87-0.61-1.58c-0.3,0.65-0.77,1.15-1.41,1.52
	C112.08,255.38,111.39,255.57,110.63,255.57z M111.68,254.73c0.34,0,0.69-0.1,1.04-0.3c0.37-0.2,0.68-0.49,0.93-0.87
	c0.25-0.39,0.41-0.86,0.46-1.41v-1.98h-1.27c-1.04,0-1.82,0.23-2.34,0.7c-0.51,0.46-0.76,1.1-0.76,1.94c0,0.7,0.17,1.19,0.49,1.48
	C110.56,254.58,111.04,254.73,111.68,254.73z M123.5,255.57c-0.91,0-1.74-0.21-2.49-0.63c-0.75-0.43-1.34-1.03-1.79-1.81
	c-0.43-0.78-0.65-1.68-0.65-2.68c0-1.05,0.23-1.96,0.68-2.74c0.47-0.77,1.08-1.35,1.82-1.75c0.75-0.4,1.55-0.61,2.41-0.61
	c0.72,0,1.38,0.13,1.98,0.38c0.6,0.24,1.06,0.58,1.41,1.03c0.36,0.44,0.53,0.94,0.53,1.5c0,0.42-0.11,0.74-0.32,0.97
	c-0.21,0.21-0.5,0.32-0.85,0.32c-0.34,0-0.63-0.11-0.86-0.34c-0.23-0.23-0.34-0.51-0.34-0.85c0.19-0.13,0.32-0.27,0.4-0.42
	c0.08-0.15,0.11-0.34,0.11-0.57c0-0.47-0.19-0.85-0.57-1.14c-0.37-0.3-0.86-0.46-1.48-0.46c-0.91,0-1.62,0.33-2.11,0.99
	c-0.48,0.65-0.72,1.56-0.72,2.74v1.9c0,1.13,0.24,2.03,0.7,2.72c0.48,0.68,1.19,1.03,2.13,1.03c0.86,0,1.61-0.24,2.24-0.72
	c0.65-0.49,1.04-1.14,1.2-1.94h0.44c-0.18,0.94-0.62,1.68-1.33,2.24C125.35,255.29,124.5,255.57,123.5,255.57z"/>
</svg>
