<?xml version="1.0" encoding="utf-8"?>
<!-- Generator: Adobe Illustrator 25.3.1, SVG Export Plug-In . SVG Version: 6.00 Build 0)  -->
<svg version="1.1" id="Слой_1" xmlns="http://www.w3.org/2000/svg" xmlns:xlink="http://www.w3.org/1999/xlink" x="0px" y="0px"
	 viewBox="0 0 210 245" style="enable-background:new 0 0 210 245;" xml:space="preserve">
<style type="text/css">
	.st0{fill:#343434;}
	.st1{fill:none;stroke:#343434;stroke-width:0.5;}
	.st2{fill:#FAFAFA;}
	.st3{fill:none;stroke:#343434;stroke-width:0.5;stroke-linecap:round;}
	.st4{fill:#343434;fill-opacity:0.62;}
</style>
<path class="st0" d="M17.11,15.24v-0.78h9.46l0.13,3.36h-1.08l-0.42-2.41h-4.47c-0.01,0.81-0.03,1.62-0.04,2.43
	c0,0.81,0,1.61,0,2.39h2.94l0.27-1.81h0.87v4.67h-0.87l-0.27-1.98H20.7c0,0.94,0,1.82,0,2.64c0.01,0.82,0.03,1.63,0.04,2.41
	l1.77,0.21v0.78h-5.4v-0.78l1.75-0.21c0.03-0.8,0.04-1.61,0.04-2.43s0-1.65,0-2.47v-0.93c0-0.82,0-1.64,0-2.45
	c0-0.82-0.01-1.64-0.04-2.45L17.11,15.24z M28.02,27.17v-0.78l1.71-0.25v-10.7l-1.71-0.21v-0.78h3.51l4.26,10.45l4.03-10.45h3.74
	v0.78l-1.75,0.21c-0.01,0.8-0.03,1.61-0.04,2.43c0,0.82,0,1.65,0,2.47v0.93c0,0.81,0,1.63,0,2.45c0.01,0.81,0.03,1.63,0.04,2.45
	l1.75,0.21v0.78h-5.17v-0.78l1.6-0.21c0.03-0.8,0.04-1.61,0.04-2.43s0-1.64,0-2.45v-4.73l-4.12,10.6h-0.95l-4.35-10.6l0.11,3.59
	v5.99l1.56,0.25v0.78H28.02z M50.29,16.5l-1.92,5.66h3.82L50.29,16.5z M44.52,27.17v-0.78l1.6-0.25l4.05-11.78h1.2l4.05,11.86
	l1.42,0.17v0.78h-5.17v-0.78l1.86-0.23l-1.05-3.12h-4.41l-1.06,3.1l1.86,0.25v0.78H44.52z"/>
<rect x="4.52" y="5.42" class="st1" width="64.5" height="30.5"/>
<rect x="0.33" y="5.56" transform="matrix(0.7071 -0.7071 0.7071 0.7071 -2.8873 7.4746)" class="st2" width="14.5" height="3.33"/>
<rect x="59.33" y="31.56" transform="matrix(0.7071 -0.7071 0.7071 0.7071 -3.9914 56.8091)" class="st2" width="14.5" height="3.33"/>
<path class="st3" d="M32.91,55.61c-3.27,9.93-2.63,20.71-0.03,30.74c2.2,8.49,6.65,15.74,11.63,22.87
	c4.83,6.91,9.99,13.88,17.11,18.6c15.95,10.6,37.12,11.19,55.3,7.45c9.85-2.03,25.34-5.85,31.05-15.47
	c3.96-6.67,1.47-16.57-1.86-22.87c-5.25-9.92-16.44-15.81-27.52-14.48c-21.48,2.58-36.36,24.88-44.32,43.05
	c-3.56,8.13-6.01,16.9-5.96,25.86c0.09,13.63,5.55,26.5,11.8,38.34c4.52,8.56,27.29,43.93,32.66,51.97"/>
<circle class="st0" cx="113.27" cy="242.17" r="2"/>
<path class="st0" d="M121.74,235.55c0,0.32-0.07,0.61-0.21,0.87s-0.34,0.47-0.61,0.62c-0.26,0.15-0.58,0.23-0.96,0.23
	c-0.34,0-0.64-0.07-0.89-0.22s-0.42-0.37-0.5-0.66c0.03-0.08,0.08-0.12,0.16-0.12c0.07,0,0.13,0.04,0.17,0.13l0.23,0.54
	c0.11,0.05,0.22,0.1,0.34,0.13c0.13,0.03,0.28,0.05,0.46,0.05c0.5,0,0.89-0.14,1.15-0.41c0.27-0.28,0.4-0.65,0.4-1.12
	c0-0.52-0.13-0.9-0.38-1.14c-0.25-0.24-0.58-0.37-0.98-0.37c-0.2,0-0.39,0.02-0.55,0.06s-0.32,0.1-0.46,0.19h-0.14l0.17-2.39h2.48
	v0.22h-2.33l-0.14,1.99c0.16-0.08,0.32-0.14,0.48-0.18c0.16-0.04,0.33-0.06,0.51-0.06c0.49,0,0.88,0.15,1.17,0.44
	C121.59,234.66,121.74,235.05,121.74,235.55z"/>
<path class="st4" d="M117.32,175.53c-0.6,0-1.15-0.08-1.64-0.25c-0.49-0.16-0.9-0.33-1.22-0.52c-0.32-0.19-0.49-0.3-0.49-0.32
	l-1.19,0.92h-0.38v-4.63h0.38l1.04,3.01c0,0.04,0.15,0.17,0.45,0.41c0.3,0.24,0.71,0.46,1.22,0.67c0.52,0.2,1.12,0.31,1.82,0.31
	c1.02,0,1.78-0.32,2.27-0.95c0.49-0.64,0.74-1.53,0.74-2.68v-0.2c0-1.13-0.28-1.99-0.83-2.57c-0.55-0.6-1.43-0.9-2.63-0.9h-1.3v-0.4
	h1.3c0.96,0,1.67-0.26,2.14-0.79c0.48-0.54,0.72-1.32,0.72-2.34v-0.11c0-1.13-0.23-1.97-0.68-2.52c-0.44-0.55-1.08-0.83-1.91-0.83
	c-0.59,0-1.1,0.08-1.53,0.23c-0.42,0.14-0.76,0.31-1.01,0.49c-0.24,0.18-0.36,0.28-0.36,0.31l-1.12,3.02h-0.38v-4.46h0.38l1.21,0.83
	c0-0.01,0.13-0.09,0.4-0.23c0.28-0.16,0.62-0.29,1.04-0.41s0.88-0.18,1.39-0.18c1.66,0,2.86,0.33,3.6,0.99
	c0.76,0.66,1.13,1.57,1.13,2.74c0,0.89-0.29,1.64-0.86,2.27c-0.56,0.62-1.41,1.01-2.54,1.15c1.4,0.22,2.42,0.66,3.04,1.33
	s0.94,1.53,0.94,2.57c0,1.33-0.43,2.35-1.3,3.04C120.31,175.19,119.03,175.53,117.32,175.53z M123.92,174.81l1.26-0.18v-8.24
	l-1.26-0.18v-0.36h4.93c1.24,0,2.12,0.17,2.65,0.52c0.53,0.34,0.79,0.89,0.79,1.66c0,1.12-0.71,1.83-2.12,2.14v0.05
	c1.82,0.25,2.74,1.06,2.74,2.43c0,0.84-0.31,1.47-0.92,1.89s-1.46,0.63-2.56,0.63h-5.51V174.81z M128.42,170.06
	c0.62,0,1.1-0.16,1.42-0.49c0.34-0.32,0.5-0.81,0.5-1.46v-0.07c0-0.59-0.17-1.03-0.5-1.31c-0.34-0.29-0.85-0.43-1.53-0.43h-1.33
	v3.76H128.42z M128.89,174.72c0.66,0,1.17-0.17,1.53-0.52s0.54-0.86,0.54-1.53v-0.13c0-0.68-0.18-1.19-0.54-1.53
	c-0.35-0.35-0.86-0.52-1.53-0.52h-1.91v4.23H128.89z M134.52,165.18c0.36-0.22,0.68-0.52,0.97-0.9c0.3-0.4,0.45-0.79,0.45-1.19
	c0-0.11-0.03-0.19-0.09-0.25c-0.06-0.07-0.15-0.11-0.27-0.11c-0.3,0-0.56-0.1-0.77-0.31c-0.2-0.22-0.31-0.47-0.31-0.77
	c0-0.3,0.1-0.55,0.31-0.74c0.22-0.2,0.47-0.31,0.77-0.31c0.42,0,0.75,0.16,0.99,0.47c0.25,0.3,0.38,0.7,0.38,1.19
	c0,0.67-0.19,1.28-0.56,1.84c-0.36,0.54-0.92,1-1.67,1.37L134.52,165.18z M139.14,175.35c-0.3,0-0.61-0.07-0.92-0.2
	c-0.31-0.14-0.58-0.35-0.81-0.61l0.27-0.27c0.22,0.22,0.43,0.32,0.63,0.32c0.18,0,0.31-0.07,0.4-0.2c0.1-0.13,0.19-0.4,0.27-0.79
	l0.2-1.04c0.11-0.59,0.31-1.03,0.59-1.31c0.29-0.29,0.76-0.48,1.4-0.58v-0.09c-0.64-0.11-1.16-0.34-1.57-0.7
	c-0.4-0.36-0.59-0.89-0.59-1.58c0-0.8,0.27-1.41,0.81-1.82c0.54-0.42,1.42-0.63,2.63-0.63h5.15v0.38l-1.3,0.18v8.21l1.3,0.2v0.36
	h-4.39v-0.36l1.3-0.2v-3.73h-1.66c-0.52,0-0.92,0.11-1.21,0.34c-0.28,0.23-0.46,0.61-0.54,1.13l-0.27,1.53
	c-0.1,0.53-0.27,0.91-0.52,1.13C140.05,175.25,139.66,175.35,139.14,175.35z M144.5,170.44v-4.14h-1.51c-0.7,0-1.21,0.16-1.55,0.47
	c-0.32,0.31-0.49,0.81-0.49,1.49v0.23c0,0.67,0.17,1.16,0.5,1.48c0.34,0.31,0.8,0.47,1.39,0.47H144.5z M149.72,175.39
	c-0.3,0-0.61-0.07-0.92-0.22c-0.31-0.13-0.58-0.33-0.81-0.59l0.27-0.27c0.22,0.22,0.43,0.32,0.63,0.32c0.18,0,0.32-0.07,0.41-0.2
	c0.1-0.14,0.18-0.41,0.25-0.79l0.31-1.58c0.11-0.64,0.34-1.11,0.7-1.42c0.37-0.31,0.95-0.5,1.75-0.58
	c-0.26-0.24-0.46-0.64-0.59-1.19l-0.34-1.3c-0.1-0.34-0.29-0.5-0.58-0.5c-0.14,0-0.26,0.05-0.36,0.16c-0.1,0.11-0.14,0.24-0.14,0.4
	c0,0.1,0.02,0.2,0.05,0.31c-0.17,0.06-0.34,0.09-0.52,0.09c-0.34,0-0.61-0.11-0.81-0.32c-0.19-0.23-0.29-0.5-0.29-0.81
	c0-0.34,0.12-0.62,0.36-0.85c0.24-0.24,0.58-0.36,1.01-0.36c0.52,0,0.89,0.15,1.13,0.45c0.25,0.29,0.45,0.73,0.59,1.31l0.32,1.3
	c0.11,0.44,0.25,0.76,0.43,0.95c0.18,0.19,0.42,0.3,0.72,0.32h1.53v-3.62l-1.3-0.18v-0.38h4.39v0.38l-1.3,0.18v3.62h1.49
	c0.3-0.01,0.54-0.11,0.72-0.31c0.19-0.19,0.35-0.52,0.47-0.97l0.32-1.3c0.14-0.59,0.34-1.03,0.58-1.31c0.25-0.3,0.64-0.45,1.15-0.45
	c0.43,0,0.77,0.12,1.01,0.36c0.24,0.23,0.36,0.51,0.36,0.85c0,0.31-0.1,0.58-0.31,0.81c-0.19,0.22-0.46,0.32-0.79,0.32
	c-0.18,0-0.35-0.03-0.52-0.09c0.04-0.11,0.05-0.21,0.05-0.31c0-0.16-0.05-0.29-0.14-0.4c-0.1-0.11-0.22-0.16-0.36-0.16
	c-0.29,0-0.48,0.17-0.58,0.5l-0.34,1.3c-0.13,0.54-0.34,0.94-0.61,1.19c0.79,0.07,1.37,0.26,1.75,0.58
	c0.37,0.31,0.61,0.79,0.72,1.42l0.31,1.58c0.07,0.38,0.16,0.65,0.25,0.79c0.1,0.13,0.23,0.2,0.41,0.2c0.2,0,0.41-0.11,0.63-0.32
	l0.27,0.27c-0.23,0.26-0.5,0.46-0.81,0.59c-0.31,0.14-0.62,0.22-0.92,0.22c-0.53,0-0.92-0.11-1.17-0.32
	c-0.25-0.23-0.43-0.61-0.52-1.13l-0.36-1.94c-0.11-0.59-0.29-0.99-0.56-1.21c-0.26-0.23-0.63-0.34-1.1-0.34h-1.4v4.18l1.3,0.2v0.36
	h-4.39v-0.36l1.3-0.2v-4.18h-1.49c-0.44,0.01-0.79,0.13-1.04,0.36c-0.25,0.23-0.43,0.62-0.52,1.19l-0.36,1.94
	c-0.1,0.53-0.27,0.91-0.52,1.13C150.64,175.28,150.25,175.39,149.72,175.39z M165.79,163.76c-0.34,0-0.62-0.11-0.86-0.34
	c-0.24-0.24-0.36-0.53-0.36-0.86s0.11-0.62,0.34-0.85c0.24-0.23,0.53-0.34,0.88-0.34c0.32,0,0.6,0.11,0.83,0.34
	c0.23,0.23,0.34,0.51,0.34,0.85s-0.11,0.62-0.34,0.86C166.39,163.65,166.11,163.76,165.79,163.76z M163.88,175.17v-0.36l1.26-0.18
	v-8.23l-1.26-0.18v-0.36h3.06v8.77l1.26,0.18v0.36H163.88z M171.14,175.17v-0.36l1.44-0.18v-8.33h-1.55l-1.57,2.97h-0.5l0.27-3.42
	h8.5l0.27,3.42h-0.5l-1.58-2.97h-1.53v8.33l1.44,0.18v0.36H171.14z M178.86,174.81l1.26-0.18v-8.24l-1.26-0.18v-0.36h4.32v0.36
	l-1.26,0.18v3.38h2.45c1.08,0,1.93,0.23,2.54,0.68c0.62,0.46,0.94,1.13,0.94,2.02s-0.31,1.56-0.92,2.02
	c-0.61,0.46-1.46,0.68-2.56,0.68h-5.51V174.81z M183.82,174.72c0.66,0,1.17-0.19,1.53-0.58s0.54-0.94,0.54-1.66v-0.04
	c0-0.72-0.18-1.27-0.54-1.66c-0.36-0.38-0.87-0.58-1.53-0.58h-1.91v4.5H183.82z M193.56,175.35c-0.86,0-1.65-0.2-2.36-0.59
	c-0.71-0.41-1.27-0.98-1.69-1.71c-0.41-0.74-0.61-1.59-0.61-2.54c0-1,0.22-1.86,0.65-2.59c0.44-0.73,1.02-1.28,1.73-1.66
	c0.71-0.38,1.47-0.58,2.29-0.58c0.68,0,1.31,0.12,1.87,0.36c0.56,0.23,1.01,0.55,1.33,0.97c0.34,0.42,0.5,0.89,0.5,1.42
	c0,0.4-0.1,0.7-0.31,0.92c-0.2,0.2-0.47,0.31-0.81,0.31c-0.32,0-0.59-0.11-0.81-0.32c-0.22-0.22-0.32-0.49-0.32-0.81
	c0.18-0.12,0.31-0.25,0.38-0.4c0.07-0.14,0.11-0.32,0.11-0.54c0-0.44-0.18-0.8-0.54-1.08c-0.35-0.29-0.82-0.43-1.4-0.43
	c-0.86,0-1.53,0.31-2,0.94c-0.46,0.61-0.68,1.48-0.68,2.59v1.8c0,1.07,0.22,1.93,0.67,2.57c0.46,0.65,1.13,0.97,2.02,0.97
	c0.82,0,1.52-0.23,2.12-0.68c0.61-0.47,0.99-1.08,1.13-1.84h0.41c-0.17,0.89-0.59,1.6-1.26,2.12
	C195.31,175.09,194.51,175.35,193.56,175.35z M199.52,175.35c-0.3,0-0.61-0.07-0.92-0.2c-0.31-0.14-0.58-0.35-0.81-0.61l0.27-0.27
	c0.22,0.22,0.43,0.32,0.63,0.32c0.18,0,0.31-0.07,0.4-0.2c0.1-0.13,0.19-0.4,0.27-0.79l0.2-1.04c0.11-0.59,0.31-1.03,0.59-1.31
	c0.29-0.29,0.76-0.48,1.4-0.58v-0.09c-0.64-0.11-1.16-0.34-1.57-0.7c-0.4-0.36-0.59-0.89-0.59-1.58c0-0.8,0.27-1.41,0.81-1.82
	c0.54-0.42,1.42-0.63,2.63-0.63h5.15v0.38l-1.3,0.18v8.21l1.3,0.2v0.36h-4.39v-0.36l1.3-0.2v-3.73h-1.66
	c-0.52,0-0.92,0.11-1.21,0.34c-0.28,0.23-0.46,0.61-0.54,1.13l-0.27,1.53c-0.1,0.53-0.27,0.91-0.52,1.13
	C200.44,175.25,200.05,175.35,199.52,175.35z M204.88,170.44v-4.14h-1.51c-0.7,0-1.21,0.16-1.55,0.47
	c-0.32,0.31-0.49,0.81-0.49,1.49v0.23c0,0.67,0.17,1.16,0.5,1.48c0.34,0.31,0.8,0.47,1.39,0.47H204.88z M120.06,199.35
	c-1.33,0-2.3-0.19-2.92-0.56c-0.6-0.38-0.9-0.86-0.9-1.44c0-0.36,0.1-0.65,0.31-0.86c0.22-0.23,0.5-0.34,0.85-0.34
	c0.23,0,0.43,0.06,0.61,0.18c0.18,0.12,0.31,0.29,0.38,0.5c-0.2,0.24-0.31,0.49-0.31,0.76c0,0.41,0.18,0.75,0.54,1.03
	c0.37,0.26,0.85,0.4,1.44,0.4c0.72,0,1.3-0.19,1.73-0.56c0.44-0.38,0.67-0.94,0.67-1.67v-0.23c0-0.66-0.25-1.16-0.74-1.51
	c-0.48-0.36-1.08-0.54-1.8-0.54h-1.01v-0.43h1.01c0.68,0,1.21-0.16,1.57-0.49c0.36-0.34,0.54-0.82,0.54-1.46v-0.07
	c0-1.34-0.64-2.02-1.91-2.02c-0.68,0-1.31,0.17-1.89,0.5l-1.08,2.57h-0.38l0.2-3.42l1.08,0.52c0.67-0.35,1.37-0.52,2.11-0.52
	c1.34,0,2.32,0.2,2.92,0.59c0.6,0.38,0.9,0.97,0.9,1.75c0,0.56-0.21,1.03-0.63,1.4c-0.41,0.37-1.03,0.62-1.85,0.76v0.02
	c0.97,0.1,1.7,0.35,2.18,0.77c0.49,0.42,0.74,0.98,0.74,1.67c0,0.85-0.36,1.52-1.08,2C122.6,199.12,121.52,199.35,120.06,199.35z
	 M129.95,199.17v-0.36l1.26-0.18v-8.24l-1.26-0.18v-0.36h4.14v0.36l-1.08,0.18v3.83h4.45v-3.83l-1.08-0.18v-0.36h4.14v0.36
	l-1.26,0.18v8.24l1.26,0.18v0.36h-4.14v-0.36l1.08-0.18v-3.96h-4.45v3.96l1.08,0.18v0.36H129.95z M144.46,199.35
	c-0.77,0-1.4-0.2-1.89-0.59c-0.49-0.41-0.74-1.01-0.74-1.8c0-1.13,0.47-1.93,1.42-2.39c0.95-0.48,2.05-0.72,3.29-0.72h1.21v-1.39
	c0-0.62-0.07-1.1-0.22-1.44c-0.13-0.35-0.34-0.59-0.63-0.72c-0.29-0.14-0.68-0.22-1.17-0.22c-0.56,0-0.98,0.11-1.26,0.34
	c-0.28,0.22-0.41,0.51-0.41,0.88c0,0.35,0.17,0.58,0.5,0.68c0,0.3-0.11,0.56-0.34,0.79c-0.23,0.23-0.5,0.34-0.81,0.34
	c-0.34,0-0.61-0.09-0.81-0.27c-0.2-0.19-0.31-0.48-0.31-0.86c0-0.7,0.35-1.25,1.04-1.67s1.57-0.63,2.61-0.63
	c2.4,0,3.6,1.04,3.6,3.13v5.15c0,0.26,0.05,0.47,0.16,0.61c0.12,0.13,0.29,0.2,0.5,0.2c0.2,0,0.37-0.07,0.49-0.2
	c0.12-0.14,0.18-0.34,0.18-0.58h0.38c0,0.42-0.14,0.75-0.41,0.99c-0.26,0.24-0.64,0.36-1.12,0.36c-0.55,0-1.02-0.16-1.4-0.47
	c-0.37-0.32-0.56-0.82-0.58-1.49c-0.29,0.61-0.73,1.09-1.33,1.44C145.83,199.18,145.18,199.35,144.46,199.35z M145.45,198.56
	c0.32,0,0.65-0.1,0.99-0.29c0.35-0.19,0.64-0.47,0.88-0.83c0.24-0.37,0.38-0.82,0.43-1.33v-1.87h-1.21c-0.98,0-1.72,0.22-2.21,0.67
	c-0.48,0.43-0.72,1.04-0.72,1.84c0,0.66,0.16,1.13,0.47,1.4C144.39,198.42,144.85,198.56,145.45,198.56z M151.7,199.17v-0.36
	l1.37-0.54v-7.9l-1.26-0.16v-0.36h3.49l2.84,6.73l2.83-6.73h3.31v0.36l-1.26,0.18v8.24l1.26,0.18v0.36h-4.14v-0.36l1.08-0.18v-8.19
	l-3.73,8.73h-0.22l-3.76-8.73v7.83l1.37,0.54v0.36H151.7z M165.25,199.17v-0.36l1.26-0.18v-8.24l-1.26-0.18v-0.36h4.14v0.36
	l-1.08,0.18v7l4.55-6.64v-0.36l-1.08-0.18v-0.36h4.14v0.36l-1.26,0.18v8.24l1.26,0.18v0.36h-4.14v-0.36l1.08-0.18v-7.13l-4.55,6.66
	v0.47l1.08,0.18v0.36H165.25z"/>
</svg>
