<?xml version="1.0" encoding="utf-8"?>
<!-- Generator: Adobe Illustrator 25.3.1, SVG Export Plug-In . SVG Version: 6.00 Build 0)  -->
<svg version="1.1" id="Слой_1" xmlns="http://www.w3.org/2000/svg" xmlns:xlink="http://www.w3.org/1999/xlink" x="0px" y="0px"
	 viewBox="0 0 1299 186" style="enable-background:new 0 0 1299 186;" xml:space="preserve">
<style type="text/css">
	.st0{fill:#343434;fill-opacity:0.62;}
	.st1{fill:none;stroke:#343434;stroke-width:1.5;stroke-linecap:round;}
	.st2{fill:#343434;}
</style>
<path class="st0" d="M0.74,82.7v-0.63l2.76-0.45V59.78l-2.76-0.42V58.7h8.82v0.66L6.8,59.78v9.84h11.4v-9.84l-2.79-0.42V58.7h8.88
	v0.66l-2.79,0.42v21.84l2.79,0.45v0.63h-8.88v-0.63l2.79-0.45V70.37H6.8v11.25l2.76,0.45v0.63H0.74z M31.25,83
	c-1.28,0-2.33-0.33-3.15-0.99c-0.82-0.68-1.23-1.68-1.23-3c0-1.88,0.79-3.21,2.37-3.99c1.58-0.8,3.41-1.2,5.49-1.2h2.01v-2.31
	c0-1.04-0.12-1.84-0.36-2.4c-0.22-0.58-0.57-0.98-1.05-1.2c-0.48-0.24-1.13-0.36-1.95-0.36c-0.94,0-1.64,0.19-2.1,0.57
	c-0.46,0.36-0.69,0.85-0.69,1.47c0,0.58,0.28,0.96,0.84,1.14c0,0.5-0.19,0.94-0.57,1.32c-0.38,0.38-0.83,0.57-1.35,0.57
	c-0.56,0-1.01-0.15-1.35-0.45c-0.34-0.32-0.51-0.8-0.51-1.44c0-1.16,0.58-2.09,1.74-2.79c1.16-0.7,2.61-1.05,4.35-1.05
	c4,0,6,1.74,6,5.22v8.58c0,0.44,0.09,0.78,0.27,1.02c0.2,0.22,0.48,0.33,0.84,0.33c0.34,0,0.61-0.11,0.81-0.33
	c0.2-0.24,0.3-0.56,0.3-0.96h0.63c0,0.7-0.23,1.25-0.69,1.65c-0.44,0.4-1.06,0.6-1.86,0.6c-0.92,0-1.7-0.26-2.34-0.78
	c-0.62-0.54-0.94-1.37-0.96-2.49c-0.48,1.02-1.22,1.82-2.22,2.4C33.54,82.71,32.45,83,31.25,83z M32.9,81.68
	c0.54,0,1.09-0.16,1.65-0.48c0.58-0.32,1.07-0.78,1.47-1.38c0.4-0.62,0.64-1.36,0.72-2.22v-3.12h-2.01c-1.64,0-2.87,0.37-3.69,1.11
	c-0.8,0.72-1.2,1.74-1.2,3.06c0,1.1,0.26,1.88,0.78,2.34S31.9,81.68,32.9,81.68z M43.32,82.7v-0.6l2.28-0.9V68.03l-2.1-0.27v-0.6
	h5.82l4.74,11.22l4.71-11.22h5.52v0.6l-2.1,0.3V81.8l2.1,0.3v0.6h-6.9v-0.6l1.8-0.3V68.15L52.98,82.7h-0.36l-6.27-14.55V81.2
	l2.28,0.9v0.6H43.32z M73.09,82.7v-0.6l2.1-0.3V68.06l-2.1-0.3v-0.6h7.2v0.6l-2.1,0.3v13.89h5.85V68.06l-2.1-0.3v-0.6h7.2v0.6
	l-2.1,0.3v13.89h5.85V68.06l-2.1-0.3v-0.6h7.2v0.6l-2.1,0.3V81.8l2.1,0.3v0.6H73.09z M113.58,83c-0.88,0-1.53-0.18-1.95-0.54
	c-0.42-0.38-0.71-1.01-0.87-1.89l-0.6-3.18c-0.18-0.94-0.48-1.6-0.9-1.98c-0.42-0.38-0.99-0.58-1.71-0.6h-2.79v6.96l2.16,0.33v0.6
	H99.6v-0.6l2.16-0.33V68.09l-2.16-0.3v-0.63h7.32v0.63l-2.16,0.3v6.03h2.82c0.5-0.04,0.9-0.21,1.2-0.51
	c0.3-0.32,0.55-0.86,0.75-1.62l0.54-2.16c0.24-0.98,0.56-1.71,0.96-2.19c0.42-0.5,1.06-0.75,1.92-0.75c0.72,0,1.28,0.2,1.68,0.6
	c0.4,0.38,0.6,0.85,0.6,1.41c0,0.52-0.17,0.97-0.51,1.35c-0.32,0.36-0.76,0.54-1.32,0.54c-0.3,0-0.59-0.05-0.87-0.15
	c0.06-0.18,0.09-0.35,0.09-0.51c0-0.26-0.08-0.48-0.24-0.66c-0.16-0.18-0.36-0.27-0.6-0.27c-0.48,0-0.8,0.28-0.96,0.84l-0.57,2.16
	c-0.26,0.94-0.6,1.6-1.02,1.98c1.32,0.12,2.28,0.44,2.88,0.96c0.62,0.52,1.03,1.31,1.23,2.37l0.51,2.58
	c0.14,0.66,0.28,1.1,0.42,1.32c0.16,0.22,0.39,0.33,0.69,0.33c0.34,0,0.69-0.18,1.05-0.54l0.45,0.45c-0.38,0.44-0.83,0.78-1.35,1.02
	C114.59,82.89,114.08,83,113.58,83z M125.37,83c-1.44,0-2.75-0.33-3.93-0.99c-1.18-0.68-2.12-1.63-2.82-2.85
	c-0.68-1.24-1.02-2.65-1.02-4.23c0-1.58,0.34-2.98,1.02-4.2c0.7-1.22,1.64-2.16,2.82-2.82c1.18-0.68,2.49-1.02,3.93-1.02
	s2.75,0.34,3.93,1.02c1.18,0.66,2.11,1.6,2.79,2.82c0.7,1.22,1.05,2.62,1.05,4.2c0,1.58-0.35,2.99-1.05,4.23
	c-0.68,1.22-1.61,2.17-2.79,2.85C128.12,82.67,126.81,83,125.37,83z M125.37,82.34c1.48,0,2.59-0.54,3.33-1.62
	c0.76-1.08,1.14-2.51,1.14-4.29v-3c0-1.78-0.38-3.2-1.14-4.26c-0.74-1.08-1.85-1.62-3.33-1.62c-1.48,0-2.6,0.54-3.36,1.62
	c-0.74,1.06-1.11,2.48-1.11,4.26v3c0,1.78,0.37,3.21,1.11,4.29C122.77,81.8,123.89,82.34,125.37,82.34z M149.5,87.65h-0.84
	l-2.64-4.95h-9.66l-2.61,4.95h-0.84l0.45-5.7h0.96c0.44,0,0.87-0.19,1.29-0.57s0.79-0.93,1.11-1.65c0.28-0.66,0.5-1.48,0.66-2.46
	c0.18-0.98,0.34-2.52,0.48-4.62l0.24-3.6l-2.73-1.29v-0.6h13.65v0.6l-2.1,0.3v13.89h2.13L149.5,87.65z M143.92,67.91h-4.98
	l-0.33,4.74c-0.14,2.12-0.3,3.69-0.48,4.71c-0.18,1-0.4,1.84-0.66,2.52c-0.18,0.44-0.38,0.82-0.6,1.14c-0.2,0.3-0.38,0.52-0.54,0.66
	c-0.14,0.14-0.23,0.23-0.27,0.27h7.86V67.91z M155.47,83c-1.28,0-2.33-0.33-3.15-0.99c-0.82-0.68-1.23-1.68-1.23-3
	c0-1.88,0.79-3.21,2.37-3.99c1.58-0.8,3.41-1.2,5.49-1.2h2.01v-2.31c0-1.04-0.12-1.84-0.36-2.4c-0.22-0.58-0.57-0.98-1.05-1.2
	c-0.48-0.24-1.13-0.36-1.95-0.36c-0.94,0-1.64,0.19-2.1,0.57c-0.46,0.36-0.69,0.85-0.69,1.47c0,0.58,0.28,0.96,0.84,1.14
	c0,0.5-0.19,0.94-0.57,1.32c-0.38,0.38-0.83,0.57-1.35,0.57c-0.56,0-1.01-0.15-1.35-0.45c-0.34-0.32-0.51-0.8-0.51-1.44
	c0-1.16,0.58-2.09,1.74-2.79c1.16-0.7,2.61-1.05,4.35-1.05c4,0,6,1.74,6,5.22v8.58c0,0.44,0.09,0.78,0.27,1.02
	c0.2,0.22,0.48,0.33,0.84,0.33c0.34,0,0.61-0.11,0.81-0.33c0.2-0.24,0.3-0.56,0.3-0.96h0.63c0,0.7-0.23,1.25-0.69,1.65
	c-0.44,0.4-1.06,0.6-1.86,0.6c-0.92,0-1.7-0.26-2.34-0.78c-0.62-0.54-0.94-1.37-0.96-2.49c-0.48,1.02-1.22,1.82-2.22,2.4
	C157.76,82.71,156.67,83,155.47,83z M157.12,81.68c0.54,0,1.09-0.16,1.65-0.48c0.58-0.32,1.07-0.78,1.47-1.38
	c0.4-0.62,0.64-1.36,0.72-2.22v-3.12h-2.01c-1.64,0-2.87,0.37-3.69,1.11c-0.8,0.72-1.2,1.74-1.2,3.06c0,1.1,0.26,1.88,0.78,2.34
	S156.12,81.68,157.12,81.68z M168.26,87.08c0.6-0.36,1.14-0.87,1.62-1.53c0.5-0.64,0.75-1.29,0.75-1.95c0-0.18-0.05-0.33-0.15-0.45
	c-0.1-0.1-0.25-0.15-0.45-0.15c-0.5,0-0.93-0.17-1.29-0.51c-0.34-0.36-0.51-0.79-0.51-1.29s0.17-0.91,0.51-1.23
	c0.36-0.34,0.79-0.51,1.29-0.51c0.7,0,1.25,0.26,1.65,0.78c0.42,0.5,0.63,1.16,0.63,1.98c0,1.12-0.31,2.13-0.93,3.03
	c-0.6,0.92-1.53,1.69-2.79,2.31L168.26,87.08z M181.69,82.7v-0.6l2.28-0.9V68.03l-2.1-0.27v-0.6h5.82l4.74,11.22l4.71-11.22h5.52
	v0.6l-2.1,0.3V81.8l2.1,0.3v0.6h-6.9v-0.6l1.8-0.3V68.15l-6.21,14.55h-0.36l-6.27-14.55V81.2l2.28,0.9v0.6H181.69z M204.28,82.7
	v-0.6l2.1-0.3V68.06l-2.1-0.3v-0.6h6.9v0.6l-1.8,0.3v11.67l7.59-11.07v-0.6l-1.8-0.3v-0.6h6.9v0.6l-2.1,0.3V81.8l2.1,0.3v0.6h-6.9
	v-0.6l1.8-0.3V69.92l-7.59,11.1v0.78l1.8,0.3v0.6H204.28z M230.88,82.1l2.1-0.3V68.06l-2.1-0.3v-0.6h8.22
	c2.06,0,3.53,0.29,4.41,0.87c0.88,0.56,1.32,1.48,1.32,2.76c0,1.86-1.18,3.05-3.54,3.57v0.09c3.04,0.42,4.56,1.77,4.56,4.05
	c0,1.4-0.51,2.45-1.53,3.15c-1.02,0.7-2.44,1.05-4.26,1.05h-9.18V82.1z M238.38,74.18c1.04,0,1.83-0.27,2.37-0.81
	c0.56-0.54,0.84-1.35,0.84-2.43v-0.12c0-0.98-0.28-1.71-0.84-2.19s-1.41-0.72-2.55-0.72h-2.22v6.27H238.38z M239.16,81.95
	c1.1,0,1.95-0.29,2.55-0.87c0.6-0.58,0.9-1.43,0.9-2.55v-0.21c0-1.14-0.3-1.99-0.9-2.55c-0.58-0.58-1.43-0.87-2.55-0.87h-3.18v7.05
	H239.16z M247.79,82.7v-0.6l2.1-0.3V68.06l-2.1-0.3v-0.6h6.9v0.6l-1.8,0.3v11.67l7.59-11.07v-0.6l-1.8-0.3v-0.6h6.9v0.6l-2.1,0.3
	V81.8l2.1,0.3v0.6h-6.9v-0.6l1.8-0.3V69.92l-7.59,11.1v0.78l1.8,0.3v0.6H247.79z M267.21,82.7v-0.6l2.1-0.3V68.06l-2.1-0.3v-0.6
	h17.4v0.6l-2.1,0.3V81.8l2.1,0.3v0.6h-6.9v-0.6l1.8-0.3V67.91h-7.2V81.8l1.8,0.3v0.6H267.21z M286.04,90.59l2.1-0.3v-22.2l-2.1-0.3
	v-0.6h5.1v3.15c0.5-1.08,1.17-1.92,2.01-2.52c0.86-0.62,1.88-0.93,3.06-0.93c1.42,0,2.67,0.34,3.75,1.02
	c1.08,0.66,1.92,1.6,2.52,2.82c0.6,1.2,0.9,2.61,0.9,4.23c0,1.62-0.3,3.04-0.9,4.26c-0.6,1.2-1.44,2.13-2.52,2.79
	c-1.08,0.66-2.33,0.99-3.75,0.99c-1.18,0-2.2-0.3-3.06-0.9c-0.84-0.62-1.51-1.46-2.01-2.52v10.71l2.82,0.3v0.6h-7.92V90.59z
	 M295.91,82.25c2.78,0,4.17-1.93,4.17-5.79v-3c0-3.88-1.39-5.82-4.17-5.82c-0.88,0-1.68,0.26-2.4,0.78
	c-0.72,0.5-1.29,1.18-1.71,2.04c-0.42,0.86-0.64,1.79-0.66,2.79v3.21c0,1.02,0.2,1.98,0.6,2.88c0.42,0.88,0.99,1.59,1.71,2.13
	C294.19,81.99,295.01,82.25,295.91,82.25z M310.42,83c-1.28,0-2.33-0.33-3.15-0.99c-0.82-0.68-1.23-1.68-1.23-3
	c0-1.88,0.79-3.21,2.37-3.99c1.58-0.8,3.41-1.2,5.49-1.2h2.01v-2.31c0-1.04-0.12-1.84-0.36-2.4c-0.22-0.58-0.57-0.98-1.05-1.2
	c-0.48-0.24-1.13-0.36-1.95-0.36c-0.94,0-1.64,0.19-2.1,0.57c-0.46,0.36-0.69,0.85-0.69,1.47c0,0.58,0.28,0.96,0.84,1.14
	c0,0.5-0.19,0.94-0.57,1.32c-0.38,0.38-0.83,0.57-1.35,0.57c-0.56,0-1.01-0.15-1.35-0.45c-0.34-0.32-0.51-0.8-0.51-1.44
	c0-1.16,0.58-2.09,1.74-2.79c1.16-0.7,2.61-1.05,4.35-1.05c4,0,6,1.74,6,5.22v8.58c0,0.44,0.09,0.78,0.27,1.02
	c0.2,0.22,0.48,0.33,0.84,0.33c0.34,0,0.61-0.11,0.81-0.33c0.2-0.24,0.3-0.56,0.3-0.96h0.63c0,0.7-0.23,1.25-0.69,1.65
	c-0.44,0.4-1.06,0.6-1.86,0.6c-0.92,0-1.7-0.26-2.34-0.78c-0.62-0.54-0.94-1.37-0.96-2.49c-0.48,1.02-1.22,1.82-2.22,2.4
	C312.71,82.71,311.62,83,310.42,83z M312.07,81.68c0.54,0,1.09-0.16,1.65-0.48c0.58-0.32,1.07-0.78,1.47-1.38
	c0.4-0.62,0.64-1.36,0.72-2.22v-3.12h-2.01c-1.64,0-2.87,0.37-3.69,1.11c-0.8,0.72-1.2,1.74-1.2,3.06c0,1.1,0.26,1.88,0.78,2.34
	C310.31,81.45,311.07,81.68,312.07,81.68z M322.49,82.1l2.1-0.3V68.06l-2.1-0.3v-0.6h8.22c2.06,0,3.53,0.29,4.41,0.87
	c0.88,0.56,1.32,1.48,1.32,2.76c0,1.86-1.18,3.05-3.54,3.57v0.09c3.04,0.42,4.56,1.77,4.56,4.05c0,1.4-0.51,2.45-1.53,3.15
	c-1.02,0.7-2.44,1.05-4.26,1.05h-9.18V82.1z M329.99,74.18c1.04,0,1.83-0.27,2.37-0.81c0.56-0.54,0.84-1.35,0.84-2.43v-0.12
	c0-0.98-0.28-1.71-0.84-2.19s-1.41-0.72-2.55-0.72h-2.22v6.27H329.99z M330.77,81.95c1.1,0,1.95-0.29,2.55-0.87
	c0.6-0.58,0.9-1.43,0.9-2.55v-0.21c0-1.14-0.3-1.99-0.9-2.55c-0.58-0.58-1.43-0.87-2.55-0.87h-3.18v7.05H330.77z M339.4,82.7v-0.6
	l2.1-0.3V68.06l-2.1-0.3v-0.6h6.9v0.6l-1.8,0.3v11.67l7.59-11.07v-0.6l-1.8-0.3v-0.6h6.9v0.6l-2.1,0.3V81.8l2.1,0.3v0.6h-6.9v-0.6
	l1.8-0.3V69.92l-7.59,11.1v0.78l1.8,0.3v0.6H339.4z M358.82,82.7v-0.6l2.28-0.9V68.03l-2.1-0.27v-0.6h5.82l4.74,11.22l4.71-11.22
	h5.52v0.6l-2.1,0.3V81.8l2.1,0.3v0.6h-6.9v-0.6l1.8-0.3V68.15l-6.21,14.55h-0.36l-6.27-14.55V81.2l2.28,0.9v0.6H358.82z M389.66,83
	c-1.44,0-2.75-0.33-3.93-0.99c-1.18-0.68-2.12-1.63-2.82-2.85c-0.68-1.24-1.02-2.65-1.02-4.23c0-1.58,0.34-2.98,1.02-4.2
	c0.7-1.22,1.64-2.16,2.82-2.82c1.18-0.68,2.49-1.02,3.93-1.02s2.75,0.34,3.93,1.02c1.18,0.66,2.11,1.6,2.79,2.82
	c0.7,1.22,1.05,2.62,1.05,4.2c0,1.58-0.35,2.99-1.05,4.23c-0.68,1.22-1.61,2.17-2.79,2.85C392.41,82.67,391.1,83,389.66,83z
	 M389.66,82.34c1.48,0,2.59-0.54,3.33-1.62c0.76-1.08,1.14-2.51,1.14-4.29v-3c0-1.78-0.38-3.2-1.14-4.26
	c-0.74-1.08-1.85-1.62-3.33-1.62c-1.48,0-2.6,0.54-3.36,1.62c-0.74,1.06-1.11,2.48-1.11,4.26v3c0,1.78,0.37,3.21,1.11,4.29
	C387.06,81.8,388.18,82.34,389.66,82.34z M407.77,83c-1.44,0-2.75-0.33-3.93-0.99c-1.18-0.68-2.12-1.63-2.82-2.85
	c-0.68-1.24-1.02-2.65-1.02-4.23c0-1.66,0.36-3.1,1.08-4.32c0.74-1.22,1.7-2.14,2.88-2.76c1.18-0.64,2.45-0.96,3.81-0.96
	c1.14,0,2.18,0.2,3.12,0.6c0.94,0.38,1.68,0.92,2.22,1.62c0.56,0.7,0.84,1.49,0.84,2.37c0,0.66-0.17,1.17-0.51,1.53
	c-0.34,0.34-0.79,0.51-1.35,0.51c-0.54,0-0.99-0.18-1.35-0.54c-0.36-0.36-0.54-0.81-0.54-1.35c0.3-0.2,0.51-0.42,0.63-0.66
	c0.12-0.24,0.18-0.54,0.18-0.9c0-0.74-0.3-1.34-0.9-1.8c-0.58-0.48-1.36-0.72-2.34-0.72c-1.44,0-2.55,0.52-3.33,1.56
	c-0.76,1.02-1.14,2.46-1.14,4.32v3c0,1.78,0.37,3.21,1.11,4.29c0.76,1.08,1.88,1.62,3.36,1.62c1.36,0,2.54-0.38,3.54-1.14
	c1.02-0.78,1.65-1.8,1.89-3.06h0.69c-0.28,1.48-0.98,2.66-2.1,3.54C410.69,82.56,409.35,83,407.77,83z M415.92,82.1l2.1-0.3V68.06
	l-2.1-0.3v-0.6h7.2v0.6l-2.1,0.3v5.64h4.08c1.8,0,3.21,0.38,4.23,1.14c1.04,0.76,1.56,1.88,1.56,3.36s-0.51,2.6-1.53,3.36
	c-1.02,0.76-2.44,1.14-4.26,1.14h-9.18V82.1z M424.2,81.95c1.1,0,1.95-0.32,2.55-0.96s0.9-1.56,0.9-2.76v-0.06
	c0-1.2-0.3-2.12-0.9-2.76s-1.45-0.96-2.55-0.96h-3.18v7.5H424.2z"/>
<path class="st1" d="M207.45,133.7c-1-3.5-5-16.5,2.5-39.5 M225.95,55.2c11.5-18.5,26.52-29.49,49.64-38.86
	c76.06-30.82,168.17-7.6,243.86,12.59c87.25,23.27,167.68,65.17,251,99.02c92.72,37.68,190.02,72.52,291.35,51.65
	c120.17-24.75,167.65-71.9,236.15-161.9"/>
<circle class="st2" cx="207.95" cy="135.2" r="3.5"/>
<path class="st2" d="M216.67,118.65c0,0.55,0.11,1.03,0.33,1.44c0.22,0.41,0.51,0.73,0.88,0.96c0.38,0.23,0.81,0.35,1.29,0.35
	c0.41,0,0.82-0.11,1.21-0.32c0.4-0.21,0.74-0.51,1.02-0.9c0.01-0.08,0.01-0.17,0.01-0.26c0.01-0.09,0.01-0.17,0.01-0.25
	c0-0.76-0.11-1.41-0.33-1.95c-0.22-0.55-0.51-0.97-0.88-1.27c-0.37-0.3-0.78-0.45-1.23-0.45c-0.42,0-0.81,0.11-1.17,0.33
	c-0.35,0.21-0.63,0.51-0.84,0.92C216.77,117.63,216.67,118.1,216.67,118.65z M221.92,119.64c0,0.93-0.2,1.81-0.6,2.62
	c-0.39,0.81-0.97,1.52-1.74,2.14s-1.72,1.11-2.85,1.49l-0.09-0.25c1.37-0.5,2.46-1.2,3.26-2.1c0.8-0.91,1.29-1.9,1.47-2.97
	c-0.26,0.35-0.59,0.62-0.99,0.82c-0.39,0.2-0.82,0.3-1.3,0.3c-0.85,0-1.54-0.28-2.09-0.83c-0.53-0.55-0.79-1.3-0.79-2.25
	c0-0.58,0.13-1.08,0.39-1.51c0.26-0.44,0.6-0.78,1.02-1.03c0.43-0.25,0.9-0.38,1.41-0.38c0.56,0,1.06,0.16,1.49,0.48
	c0.44,0.31,0.79,0.76,1.04,1.35C221.79,118.12,221.92,118.82,221.92,119.64z"/>
</svg>
