<?xml version="1.0" encoding="utf-8"?>
<!-- Generator: Adobe Illustrator 25.3.1, SVG Export Plug-In . SVG Version: 6.00 Build 0)  -->
<svg version="1.1" id="Слой_1" xmlns="http://www.w3.org/2000/svg" xmlns:xlink="http://www.w3.org/1999/xlink" x="0px" y="0px"
	 viewBox="0 0 179 182" style="enable-background:new 0 0 179 182;" xml:space="preserve">
<style type="text/css">
	.st0{fill:#343434;}
	.st1{fill:none;stroke:#343434;stroke-width:0.5;}
	.st2{fill:#FFFFFF;}
	.st3{fill:none;stroke:#343434;stroke-width:0.5;stroke-linecap:round;}
</style>
<path class="st0" d="M122.39,15.2v-0.78h9.46l0.13,3.36h-1.08l-0.42-2.41h-4.47c-0.01,0.81-0.02,1.62-0.04,2.43
	c0,0.81,0,1.61,0,2.39h2.94l0.27-1.81h0.87v4.67h-0.87l-0.27-1.98h-2.94c0,0.94,0,1.82,0,2.64c0.01,0.82,0.03,1.63,0.04,2.41
	l1.77,0.21v0.78h-5.4v-0.78l1.75-0.21c0.03-0.8,0.04-1.61,0.04-2.43s0-1.65,0-2.47v-0.93c0-0.82,0-1.64,0-2.45
	c0-0.82-0.01-1.64-0.04-2.45L122.39,15.2z M133.3,27.13v-0.78l1.71-0.25v-10.7l-1.71-0.21v-0.78h3.51l4.26,10.45l4.03-10.45h3.74
	v0.78l-1.75,0.21c-0.01,0.8-0.02,1.61-0.04,2.43c0,0.82,0,1.65,0,2.47v0.93c0,0.81,0,1.63,0,2.45c0.01,0.81,0.02,1.63,0.04,2.45
	l1.75,0.21v0.78h-5.17v-0.78l1.6-0.21c0.02-0.8,0.04-1.61,0.04-2.43s0-1.64,0-2.45v-4.73l-4.12,10.6h-0.95l-4.35-10.6l0.11,3.59
	v5.99l1.56,0.25v0.78H133.3z M155.57,16.45l-1.92,5.66h3.82L155.57,16.45z M149.8,27.13v-0.78l1.6-0.25l4.05-11.78h1.2l4.05,11.86
	l1.43,0.17v0.78h-5.17v-0.78l1.86-0.23l-1.04-3.12h-4.41l-1.06,3.1l1.86,0.25v0.78H149.8z"/>
<rect x="109.8" y="5.38" class="st1" width="64.5" height="30.5"/>
<rect x="105.61" y="5.77" transform="matrix(0.7071 -0.7071 0.7071 0.7071 27.798 81.9816)" class="st2" width="14.5" height="3.33"/>
<rect x="164.61" y="31.77" transform="matrix(0.7071 -0.7071 0.7071 0.7071 26.6939 131.3161)" class="st2" width="14.5" height="3.33"/>
<path class="st3" d="M10.05,178.63c6.5-5,49.3-41.9,54.78-46.04c12.14-9.16,23.65-20.52,31.84-33.43
	c3.32-5.24,7.31-12.62,6.45-19.13c-0.5-3.75-4.72-4.86-7.65-2.82c-3.65,2.55-6.58,6.72-9.03,10.31
	c-4.32,6.33-8.34,13.37-10.59,20.75c-3.62,11.84,0.7,26.8,15.03,26.54c20.29-0.37,39.43-14.54,52.61-28.81
	c12.51-13.54,22.57-44.37,5.07-64.37"/>
<circle class="st0" cx="9.55" cy="179.13" r="2"/>
<path class="st0" d="M0.95,174.13v-0.18c0.29-0.34,0.58-0.67,0.85-0.99c0.27-0.32,0.5-0.6,0.68-0.81c0.28-0.33,0.49-0.61,0.65-0.83
	c0.15-0.23,0.26-0.43,0.33-0.61c0.07-0.18,0.1-0.37,0.1-0.55c0-0.22-0.05-0.42-0.14-0.6c-0.09-0.19-0.22-0.33-0.39-0.44
	c-0.18-0.11-0.4-0.17-0.66-0.17c-0.15,0-0.29,0.02-0.41,0.05c-0.12,0.03-0.25,0.09-0.39,0.17l-0.26,0.49
	c-0.03,0.05-0.06,0.1-0.09,0.13c-0.03,0.03-0.07,0.04-0.11,0.04c-0.07,0-0.13-0.04-0.16-0.11c0.13-0.28,0.33-0.51,0.58-0.67
	c0.26-0.17,0.55-0.25,0.86-0.25c0.44,0,0.79,0.12,1.04,0.37s0.38,0.58,0.38,1.01c0,0.19-0.04,0.39-0.13,0.58
	c-0.08,0.19-0.21,0.42-0.4,0.67c-0.19,0.25-0.44,0.56-0.76,0.94c-0.06,0.08-0.17,0.19-0.3,0.35s-0.3,0.34-0.48,0.55
	c-0.18,0.2-0.36,0.42-0.56,0.64h2.91v0.22H0.95z"/>
</svg>
