<?xml version="1.0" encoding="utf-8"?>
<!-- Generator: Adobe Illustrator 25.3.1, SVG Export Plug-In . SVG Version: 6.00 Build 0)  -->
<svg version="1.1" id="Слой_1" xmlns="http://www.w3.org/2000/svg" xmlns:xlink="http://www.w3.org/1999/xlink" x="0px" y="0px"
	 viewBox="0 0 158.5 141" style="enable-background:new 0 0 158.5 141;" xml:space="preserve">
<style type="text/css">
	.st0{fill:none;stroke:#343434;stroke-width:0.5;stroke-linecap:round;}
	.st1{fill:#343434;}
</style>
<path class="st0" d="M9.6,138.05c6.5-5,49.3-41.9,54.78-46.04c12.14-9.16,23.65-20.52,31.84-33.43c3.32-5.24,7.31-12.62,6.45-19.13
	c-0.5-3.75-4.72-4.86-7.65-2.82c-3.65,2.55-6.58,6.72-9.03,10.31c-4.32,6.33-8.34,13.37-10.59,20.75
	c-3.62,11.84,0.7,26.8,15.03,26.54c20.29-0.37,39.43-14.54,52.61-28.81c12.51-13.54,22.57-44.37,5.07-64.37"/>
<circle class="st1" cx="9.1" cy="138.55" r="2"/>
<path class="st1" d="M0.49,133.55v-0.18c0.29-0.34,0.58-0.67,0.85-0.99c0.27-0.32,0.5-0.6,0.68-0.81c0.28-0.33,0.49-0.61,0.65-0.83
	c0.15-0.23,0.26-0.43,0.33-0.61c0.07-0.18,0.1-0.37,0.1-0.55c0-0.22-0.05-0.42-0.14-0.6c-0.09-0.19-0.22-0.33-0.39-0.44
	c-0.18-0.11-0.4-0.17-0.66-0.17c-0.15,0-0.29,0.02-0.41,0.05c-0.12,0.03-0.25,0.09-0.39,0.17l-0.26,0.49
	c-0.03,0.05-0.06,0.1-0.09,0.13c-0.03,0.03-0.07,0.04-0.11,0.04c-0.07,0-0.13-0.04-0.16-0.11c0.13-0.28,0.33-0.51,0.58-0.67
	c0.26-0.16,0.55-0.25,0.86-0.25c0.44,0,0.79,0.12,1.04,0.37s0.38,0.58,0.38,1.01c0,0.19-0.04,0.39-0.13,0.58
	c-0.08,0.19-0.21,0.42-0.4,0.67c-0.19,0.25-0.44,0.56-0.76,0.94c-0.06,0.08-0.17,0.19-0.3,0.35s-0.3,0.34-0.48,0.55
	c-0.18,0.2-0.36,0.42-0.56,0.64h2.91v0.22H0.49z"/>
</svg>
