<?xml version="1.0" encoding="utf-8"?>
<!-- Generator: Adobe Illustrator 25.3.1, SVG Export Plug-In . SVG Version: 6.00 Build 0)  -->
<svg version="1.1" id="Слой_1" xmlns="http://www.w3.org/2000/svg" xmlns:xlink="http://www.w3.org/1999/xlink" x="0px" y="0px"
	 viewBox="0 0 1248 186" style="enable-background:new 0 0 1248 186;" xml:space="preserve">
<style type="text/css">
	.st0{fill:#343434;fill-opacity:0.62;}
	.st1{fill:none;stroke:#343434;stroke-width:1.5;stroke-linecap:round;}
	.st2{fill:#343434;}
</style>
<path class="st0" d="M12.47,82.57L3.53,59.35v21.09l2.88,1.2v0.63h-6.42v-0.63l2.82-1.2V59.35l-2.76-0.42v-0.66h6.63l7.53,19.26
	l7.68-19.26h6.06v0.66l-2.76,0.42v21.84l2.76,0.45v0.63h-8.82v-0.63l2.76-0.45V60.25l-8.88,22.32H12.47z M29.95,82.27v-0.6l2.1-0.3
	V67.63l-2.1-0.3v-0.6h6.9v0.6l-1.8,0.3V79.3l7.59-11.07v-0.6l-1.8-0.3v-0.6h6.9v0.6l-2.1,0.3v13.74l2.1,0.3v0.6h-6.9v-0.6l1.8-0.3
	V69.49l-7.59,11.1v0.78l1.8,0.3v0.6H29.95z M64.8,82.57c-1.44,0-2.75-0.33-3.93-0.99c-1.18-0.68-2.12-1.63-2.82-2.85
	c-0.68-1.24-1.02-2.65-1.02-4.23c0-1.66,0.36-3.1,1.08-4.32c0.74-1.22,1.7-2.14,2.88-2.76c1.18-0.64,2.45-0.96,3.81-0.96
	c1.14,0,2.18,0.2,3.12,0.6c0.94,0.38,1.68,0.92,2.22,1.62c0.56,0.7,0.84,1.49,0.84,2.37c0,0.66-0.17,1.17-0.51,1.53
	c-0.34,0.34-0.79,0.51-1.35,0.51c-0.54,0-0.99-0.18-1.35-0.54c-0.36-0.36-0.54-0.81-0.54-1.35c0.3-0.2,0.51-0.42,0.63-0.66
	c0.12-0.24,0.18-0.54,0.18-0.9c0-0.74-0.3-1.34-0.9-1.8c-0.58-0.48-1.36-0.72-2.34-0.72c-1.44,0-2.55,0.52-3.33,1.56
	c-0.76,1.02-1.14,2.46-1.14,4.32v3c0,1.78,0.37,3.21,1.11,4.29c0.76,1.08,1.88,1.62,3.36,1.62c1.36,0,2.54-0.38,3.54-1.14
	c1.02-0.78,1.65-1.8,1.89-3.06h0.69c-0.28,1.48-0.98,2.66-2.1,3.54C67.72,82.13,66.38,82.57,64.8,82.57z M76.41,82.27v-0.6l2.4-0.3
	V67.48h-2.58l-2.61,4.95h-0.84l0.45-5.7h14.16l0.45,5.7H87l-2.64-4.95h-2.55v13.89l2.4,0.3v0.6H76.41z M94.23,82.57
	c-1.28,0-2.33-0.33-3.15-0.99c-0.82-0.68-1.23-1.68-1.23-3c0-1.88,0.79-3.21,2.37-3.99c1.58-0.8,3.41-1.2,5.49-1.2h2.01v-2.31
	c0-1.04-0.12-1.84-0.36-2.4c-0.22-0.58-0.57-0.98-1.05-1.2c-0.48-0.24-1.13-0.36-1.95-0.36c-0.94,0-1.64,0.19-2.1,0.57
	c-0.46,0.36-0.69,0.85-0.69,1.47c0,0.58,0.28,0.96,0.84,1.14c0,0.5-0.19,0.94-0.57,1.32c-0.38,0.38-0.83,0.57-1.35,0.57
	c-0.56,0-1.01-0.15-1.35-0.45c-0.34-0.32-0.51-0.8-0.51-1.44c0-1.16,0.58-2.09,1.74-2.79c1.16-0.7,2.61-1.05,4.35-1.05
	c4,0,6,1.74,6,5.22v8.58c0,0.44,0.09,0.78,0.27,1.02c0.2,0.22,0.48,0.33,0.84,0.33c0.34,0,0.61-0.11,0.81-0.33
	c0.2-0.24,0.3-0.56,0.3-0.96h0.63c0,0.7-0.23,1.25-0.69,1.65c-0.44,0.4-1.06,0.6-1.86,0.6c-0.92,0-1.7-0.26-2.34-0.78
	c-0.62-0.54-0.94-1.37-0.96-2.49c-0.48,1.02-1.22,1.82-2.22,2.4C96.52,82.28,95.43,82.57,94.23,82.57z M95.88,81.25
	c0.54,0,1.09-0.16,1.65-0.48c0.58-0.32,1.07-0.78,1.47-1.38c0.4-0.62,0.64-1.36,0.72-2.22v-3.12h-2.01c-1.64,0-2.87,0.37-3.69,1.11
	c-0.8,0.72-1.2,1.74-1.2,3.06c0,1.1,0.26,1.88,0.78,2.34C94.12,81.02,94.88,81.25,95.88,81.25z M106.3,82.27v-0.6l2.1-0.3V67.63
	l-2.1-0.3v-0.6h6.9v0.6l-1.8,0.3v6.39h7.41v-6.39l-1.8-0.3v-0.6h6.9v0.6l-2.1,0.3v13.74l2.1,0.3v0.6h-6.9v-0.6l1.8-0.3v-6.6h-7.41
	v6.6l1.8,0.3v0.6H106.3z M133.92,82.57c-1.48,0-2.82-0.33-4.02-0.99c-1.2-0.68-2.15-1.63-2.85-2.85c-0.7-1.22-1.05-2.63-1.05-4.23
	c0-1.6,0.34-3,1.02-4.2c0.7-1.22,1.63-2.16,2.79-2.82c1.18-0.68,2.49-1.02,3.93-1.02c1.26,0,2.39,0.28,3.39,0.84
	s1.78,1.34,2.34,2.34c0.56,0.98,0.85,2.11,0.87,3.39H129.3V76c0,1.76,0.39,3.19,1.17,4.29c0.8,1.08,1.95,1.62,3.45,1.62
	c1.38,0,2.6-0.39,3.66-1.17s1.71-1.79,1.95-3.03h0.69c-0.28,1.48-0.99,2.66-2.13,3.54C136.95,82.13,135.56,82.57,133.92,82.57z
	 M137.04,72.28c0-1.74-0.27-3.03-0.81-3.87c-0.54-0.86-1.38-1.29-2.52-1.29c-1.34,0-2.38,0.47-3.12,1.41
	c-0.74,0.94-1.16,2.19-1.26,3.75H137.04z M142.34,82.27v-0.6l2.28-0.9V67.6l-2.1-0.27v-0.6h5.82l4.74,11.22l4.71-11.22h5.52v0.6
	l-2.1,0.3v13.74l2.1,0.3v0.6h-6.9v-0.6l1.8-0.3V67.72L152,82.27h-0.36l-6.27-14.55v13.05l2.28,0.9v0.6H142.34z M173.17,82.57
	c-1.44,0-2.75-0.33-3.93-0.99c-1.18-0.68-2.12-1.63-2.82-2.85c-0.68-1.24-1.02-2.65-1.02-4.23c0-1.58,0.34-2.98,1.02-4.2
	c0.7-1.22,1.64-2.16,2.82-2.82c1.18-0.68,2.49-1.02,3.93-1.02s2.75,0.34,3.93,1.02c1.18,0.66,2.11,1.6,2.79,2.82
	c0.7,1.22,1.05,2.62,1.05,4.2c0,1.58-0.35,2.99-1.05,4.23c-0.68,1.22-1.61,2.17-2.79,2.85C175.92,82.24,174.61,82.57,173.17,82.57z
	 M173.17,81.91c1.48,0,2.59-0.54,3.33-1.62c0.76-1.08,1.14-2.51,1.14-4.29v-3c0-1.78-0.38-3.2-1.14-4.26
	c-0.74-1.08-1.85-1.62-3.33-1.62s-2.6,0.54-3.36,1.62c-0.74,1.06-1.11,2.48-1.11,4.26v3c0,1.78,0.37,3.21,1.11,4.29
	C170.57,81.37,171.69,81.91,173.17,81.91z M204.19,82.57c-0.88,0-1.53-0.18-1.95-0.54c-0.42-0.38-0.71-1.01-0.87-1.89l-0.6-3.18
	c-0.18-0.94-0.48-1.6-0.9-1.98s-0.99-0.58-1.71-0.6h-2.79v6.96l2.16,0.33v0.6h-7.32v-0.6l2.16-0.33V67.66l-2.16-0.3v-0.63h7.32v0.63
	l-2.16,0.3v6.03h2.82c0.5-0.04,0.9-0.21,1.2-0.51c0.3-0.32,0.55-0.86,0.75-1.62l0.54-2.16c0.24-0.98,0.56-1.71,0.96-2.19
	c0.42-0.5,1.06-0.75,1.92-0.75c0.72,0,1.28,0.2,1.68,0.6c0.4,0.38,0.6,0.85,0.6,1.41c0,0.52-0.17,0.97-0.51,1.35
	c-0.32,0.36-0.76,0.54-1.32,0.54c-0.3,0-0.59-0.05-0.87-0.15c0.06-0.18,0.09-0.35,0.09-0.51c0-0.26-0.08-0.48-0.24-0.66
	s-0.36-0.27-0.6-0.27c-0.48,0-0.8,0.28-0.96,0.84l-0.57,2.16c-0.26,0.94-0.6,1.6-1.02,1.98c1.32,0.12,2.28,0.44,2.88,0.96
	c0.62,0.52,1.03,1.31,1.23,2.37l0.51,2.58c0.14,0.66,0.28,1.1,0.42,1.32c0.16,0.22,0.39,0.33,0.69,0.33c0.34,0,0.69-0.18,1.05-0.54
	l0.45,0.45c-0.38,0.44-0.83,0.78-1.35,1.02C205.2,82.46,204.69,82.57,204.19,82.57z M207.55,90.16l2.1-0.3v-22.2l-2.1-0.3v-0.6h5.1
	v3.15c0.5-1.08,1.17-1.92,2.01-2.52c0.86-0.62,1.88-0.93,3.06-0.93c1.42,0,2.67,0.34,3.75,1.02c1.08,0.66,1.92,1.6,2.52,2.82
	c0.6,1.2,0.9,2.61,0.9,4.23c0,1.62-0.3,3.04-0.9,4.26c-0.6,1.2-1.44,2.13-2.52,2.79c-1.08,0.66-2.33,0.99-3.75,0.99
	c-1.18,0-2.2-0.3-3.06-0.9c-0.84-0.62-1.51-1.46-2.01-2.52v10.71l2.82,0.3v0.6h-7.92V90.16z M217.42,81.82
	c2.78,0,4.17-1.93,4.17-5.79v-3c0-3.88-1.39-5.82-4.17-5.82c-0.88,0-1.68,0.26-2.4,0.78c-0.72,0.5-1.29,1.18-1.71,2.04
	c-0.42,0.86-0.64,1.79-0.66,2.79v3.21c0,1.02,0.2,1.98,0.6,2.88c0.42,0.88,0.99,1.59,1.71,2.13
	C215.7,81.56,216.52,81.82,217.42,81.82z M231.93,82.57c-1.28,0-2.33-0.33-3.15-0.99c-0.82-0.68-1.23-1.68-1.23-3
	c0-1.88,0.79-3.21,2.37-3.99c1.58-0.8,3.41-1.2,5.49-1.2h2.01v-2.31c0-1.04-0.12-1.84-0.36-2.4c-0.22-0.58-0.57-0.98-1.05-1.2
	c-0.48-0.24-1.13-0.36-1.95-0.36c-0.94,0-1.64,0.19-2.1,0.57c-0.46,0.36-0.69,0.85-0.69,1.47c0,0.58,0.28,0.96,0.84,1.14
	c0,0.5-0.19,0.94-0.57,1.32c-0.38,0.38-0.83,0.57-1.35,0.57c-0.56,0-1.01-0.15-1.35-0.45c-0.34-0.32-0.51-0.8-0.51-1.44
	c0-1.16,0.58-2.09,1.74-2.79c1.16-0.7,2.61-1.05,4.35-1.05c4,0,6,1.74,6,5.22v8.58c0,0.44,0.09,0.78,0.27,1.02
	c0.2,0.22,0.48,0.33,0.84,0.33c0.34,0,0.61-0.11,0.81-0.33c0.2-0.24,0.3-0.56,0.3-0.96h0.63c0,0.7-0.23,1.25-0.69,1.65
	c-0.44,0.4-1.06,0.6-1.86,0.6c-0.92,0-1.7-0.26-2.34-0.78c-0.62-0.54-0.94-1.37-0.96-2.49c-0.48,1.02-1.22,1.82-2.22,2.4
	C234.22,82.28,233.13,82.57,231.93,82.57z M233.58,81.25c0.54,0,1.09-0.16,1.65-0.48c0.58-0.32,1.07-0.78,1.47-1.38
	c0.4-0.62,0.64-1.36,0.72-2.22v-3.12h-2.01c-1.64,0-2.87,0.37-3.69,1.11c-0.8,0.72-1.2,1.74-1.2,3.06c0,1.1,0.26,1.88,0.78,2.34
	S232.58,81.25,233.58,81.25z M268.54,87.22l-2.64-4.95H244v-0.6l2.1-0.3V67.63l-2.1-0.3v-0.6h7.2v0.6l-2.1,0.3v13.89h5.85V67.63
	l-2.1-0.3v-0.6h7.2v0.6l-2.1,0.3v13.89h5.85V67.63l-2.1-0.3v-0.6h7.2v0.6l-2.1,0.3v13.89h2.13l0.45,5.7H268.54z M270.39,82.27v-0.6
	l2.1-0.3V67.63l-2.1-0.3v-0.6h6.9v0.6l-1.8,0.3V79.3l7.59-11.07v-0.6l-1.8-0.3v-0.6h6.9v0.6l-2.1,0.3v13.74l2.1,0.3v0.6h-6.9v-0.6
	l1.8-0.3V69.49l-7.59,11.1v0.78l1.8,0.3v0.6H270.39z M289.82,82.27v-0.6l2.28-0.9V67.6l-2.1-0.27v-0.6h5.82l4.74,11.22l4.71-11.22
	h5.52v0.6l-2.1,0.3v13.74l2.1,0.3v0.6h-6.9v-0.6l1.8-0.3V67.72l-6.21,14.55h-0.36l-6.27-14.55v13.05l2.28,0.9v0.6H289.82z
	 M312.4,82.27v-0.6l2.1-0.3V67.63l-2.1-0.3v-0.6h6.9v0.6l-1.8,0.3V79.3l7.59-11.07v-0.6l-1.8-0.3v-0.6h6.9v0.6l-2.1,0.3v13.74
	l2.1,0.3v0.6h-6.9v-0.6l1.8-0.3V69.49l-7.59,11.1v0.78l1.8,0.3v0.6H312.4z"/>
<path class="st1" d="M156.41,133.27c-1-3.5-5-16.5,2.5-39.5 M174.91,54.77c11.5-18.5,26.52-29.49,49.64-38.86
	c76.06-30.82,168.17-7.6,243.86,12.59c87.25,23.27,167.68,65.17,251,99.02c92.72,37.68,190.02,72.52,291.35,51.65
	c120.17-24.75,167.65-71.9,236.15-161.9"/>
<circle class="st2" cx="156.91" cy="134.77" r="3.5"/>
<path class="st2" d="M165.77,116.04l2.6-0.74l0.21,0.18l-0.06,2.19v4.39c0,0.46,0,0.93,0,1.39c0.01,0.47,0.02,0.94,0.03,1.41
	l2.26,0.09v0.3h-5.16v-0.3l2.42-0.09c0.01-0.47,0.01-0.94,0.01-1.41c0.01-0.47,0.01-0.93,0.01-1.39v-6.25l-2.32,0.52V116.04z
	 M173.05,120.39c0,1.15,0.12,2.07,0.35,2.78c0.24,0.7,0.54,1.21,0.92,1.53c0.37,0.31,0.74,0.46,1.12,0.46
	c0.39,0,0.76-0.15,1.12-0.46c0.37-0.32,0.67-0.83,0.9-1.53c0.24-0.7,0.36-1.62,0.36-2.78c0-1.17-0.12-2.11-0.36-2.81
	c-0.23-0.71-0.53-1.22-0.9-1.54c-0.36-0.32-0.74-0.48-1.12-0.48c-0.38,0-0.76,0.16-1.12,0.48c-0.37,0.32-0.68,0.83-0.92,1.54
	C173.16,118.29,173.05,119.22,173.05,120.39z M175.43,115.26c0.5,0,0.96,0.18,1.39,0.54c0.44,0.35,0.79,0.9,1.07,1.65
	s0.4,1.73,0.4,2.94c0,1.19-0.13,2.16-0.4,2.91s-0.62,1.3-1.07,1.65c-0.43,0.34-0.89,0.51-1.39,0.51s-0.97-0.17-1.41-0.51
	c-0.43-0.35-0.78-0.9-1.05-1.65s-0.4-1.72-0.4-2.91c0-1.21,0.13-2.19,0.4-2.94s0.62-1.3,1.05-1.65
	C174.46,115.44,174.93,115.26,175.43,115.26z"/>
</svg>
